<svg xmlns="http://www.w3.org/2000/svg" xmlns:xlink="http://www.w3.org/1999/xlink" width="500" zoomAndPan="magnify" viewBox="0 0 375 374.999991" height="500" preserveAspectRatio="xMidYMid meet" version="1.0"><defs><g/><clipPath id="7edd1e94ef"><path d="M 6 130 L 73.917969 130 L 73.917969 209.632812 L 6 209.632812 Z M 6 130 " clip-rule="nonzero"/></clipPath><clipPath id="6eca1d295f"><path d="M 309.671875 142 L 323 142 L 323 148 L 309.671875 148 Z M 309.671875 142 " clip-rule="nonzero"/></clipPath><clipPath id="77d9abf7b6"><path d="M 347 133 L 354.671875 133 L 354.671875 138 L 347 138 Z M 347 133 " clip-rule="nonzero"/></clipPath><clipPath id="c7e35a4afc"><path d="M 347 138 L 354.671875 138 L 354.671875 142 L 347 142 Z M 347 138 " clip-rule="nonzero"/></clipPath><clipPath id="9603788fcf"><path d="M 334 116.265625 L 338 116.265625 L 338 124 L 334 124 Z M 334 116.265625 " clip-rule="nonzero"/></clipPath></defs><rect x="-37.5" width="450" fill="#ffffff" y="-37.499999" height="449.999989" fill-opacity="1"/><rect x="-37.5" width="450" fill="#ebe8e0" y="-37.499999" height="449.999989" fill-opacity="1"/><path fill="#f8f8f8" d="M 21.453125 124.203125 C 21.324219 124.039062 21.039062 128.324219 21.039062 129.636719 C 21.039062 129.707031 21 130.363281 20.769531 130.59375 C 20.492188 130.867188 20.121094 130.648438 19.972656 129.910156 C 19.246094 126.257812 19.105469 125.015625 19.40625 123.734375 C 18.730469 124.363281 16.605469 128.320312 16.058594 128 C 15.894531 127.90625 15.757812 127.695312 15.734375 127.347656 C 15.648438 126.046875 17.355469 122.75 18.171875 121.605469 C 14 124.125 9.980469 132.507812 16.332031 132.644531 C 16.992188 137.601562 21.210938 137.496094 23.535156 131.804688 C 25.351562 133.925781 27.722656 131.210938 27.328125 128.378906 C 26.980469 125.894531 23.445312 121.710938 21.011719 121.445312 C 23.878906 123.742188 24.390625 125.667969 23.878906 126.195312 C 23.578125 126.507812 21.992188 124.84375 21.453125 124.203125 Z M 16.304688 118.953125 C 13.703125 116.484375 10.546875 116.703125 7.597656 117.753906 C 5.195312 118.613281 3.410156 120.355469 4.53125 122.847656 C 1.15625 124.28125 2.023438 127.859375 5.792969 127.523438 C 6.078125 129.664062 7.984375 131.097656 9.695312 129.703125 C 13.105469 126.921875 11.738281 123.730469 17.726562 121.167969 C 15.425781 121.710938 13.890625 122.636719 12.945312 123.394531 C 12.425781 123.8125 11.738281 124.953125 11.140625 124.546875 C 9.625 123.515625 13.308594 121.132812 14.730469 120.613281 C 13.753906 120.578125 10.828125 120.871094 10.070312 120.402344 C 8.191406 119.25 12.636719 118.640625 13.230469 118.621094 C 14.808594 118.550781 16.292969 118.953125 16.304688 118.953125 Z M 16.53125 114.832031 C 16.503906 114.007812 16.097656 111.402344 16.835938 111.09375 C 17.722656 110.726562 17.796875 115.425781 17.738281 115.929688 C 17.722656 116.050781 17.863281 116.285156 18.019531 116.332031 C 19.039062 116.609375 18.386719 107.640625 18.09375 106.625 C 17.390625 104.171875 15 105.054688 14.175781 106.339844 C 13.066406 105.71875 12.007812 105.488281 11.074219 105.554688 C 8.824219 105.714844 7.367188 107.613281 7.972656 109.96875 C 6.890625 110.269531 6.195312 110.605469 5.75 110.96875 C 4.554688 111.941406 4.855469 113.136719 5.550781 114.183594 C 8.324219 118.382812 12.769531 112.976562 17.085938 118.296875 C 17.214844 118.460938 17.65625 118.878906 17.519531 118.261719 C 17.484375 118.113281 17.425781 117.921875 17.320312 117.703125 C 16.828125 116.667969 15.394531 115.003906 11.722656 114.070312 C 10.996094 113.472656 11.6875 113.164062 12.117188 113.164062 C 12.898438 113.164062 14.558594 114.015625 16.53125 114.832031 Z M 21.304688 119.191406 C 21.304688 118.640625 20.855469 118.191406 20.308594 118.191406 C 19.757812 118.191406 19.308594 118.640625 19.308594 119.191406 C 19.308594 119.746094 19.757812 120.191406 20.308594 120.191406 C 20.855469 120.191406 21.304688 119.746094 21.304688 119.191406 Z M 24.066406 114.800781 C 24.457031 114.902344 26.855469 112.636719 28.167969 112.242188 C 28.613281 112.105469 29.046875 112.058594 29.113281 112.367188 C 29.308594 113.3125 24.539062 115.859375 23.53125 117.714844 C 28.644531 114.222656 31.136719 114.992188 33.464844 114.371094 C 37.144531 113.390625 33.074219 109.667969 31.570312 108.515625 C 31.878906 103.117188 26.472656 104.46875 26.574219 106.648438 C 25.726562 105.566406 24.628906 105.347656 23.738281 105.480469 C 21.148438 105.851562 21.355469 109.328125 21.625 112.363281 C 21.761719 113.949219 21.976562 114.8125 22.191406 116.519531 C 22.191406 116.519531 22.792969 114.636719 24.445312 111.351562 C 24.6875 110.875 24.886719 110.085938 25.566406 110.296875 C 26.179688 110.496094 24.226562 113.019531 23.972656 113.90625 C 23.972656 113.90625 23.730469 114.710938 24.066406 114.800781 Z M 22.96875 121.277344 C 22.550781 121.078125 27.8125 123.863281 28.652344 129.476562 C 28.652344 129.476562 31.53125 132.886719 33.988281 126.613281 C 38.085938 126.644531 38.371094 122.90625 35.902344 121.277344 C 37.078125 113.011719 27.121094 116.28125 23.546875 119.382812 C 24.78125 119.011719 29.667969 117.066406 30.230469 117.785156 C 30.527344 118.171875 30.402344 118.894531 27.058594 119.882812 C 28.355469 120.179688 31.964844 120.574219 32.445312 121.59375 C 33.425781 123.703125 27.875 121.503906 27.34375 121.328125 C 28.074219 122.035156 30.117188 123.632812 30.175781 124.457031 C 30.269531 125.640625 29.09375 125.191406 28.886719 124.953125 C 28.136719 124.105469 26.1875 122.160156 22.96875 121.277344 Z M 22.96875 121.277344 " fill-opacity="1" fill-rule="evenodd"/><g clip-path="url(#7edd1e94ef)"><path fill="#f8f8f8" d="M 15.042969 134.0625 C 13.855469 133.824219 12.785156 133.253906 12.113281 132.15625 C 11.734375 131.542969 11.539062 130.867188 11.484375 130.160156 C 11.238281 130.410156 10.976562 130.65625 10.671875 130.90625 C 10.519531 131.03125 10.355469 131.148438 10.191406 131.246094 C 8.355469 135.300781 7.160156 139.671875 6.617188 144.046875 C 6.472656 146.070312 6.519531 148.074219 6.730469 150.039062 C 7.875 160.101562 13.746094 168.085938 21.582031 174.726562 C 30.941406 182.65625 43.105469 188.667969 53.351562 194.007812 C 63.589844 199.351562 71.910156 204.015625 73.628906 209.257812 C 73.667969 209.386719 73.707031 209.507812 73.738281 209.632812 L 73.738281 209.648438 C 73.773438 209.757812 73.800781 209.875 73.820312 209.984375 C 72.125 201.753906 62.65625 195.726562 51.679688 189.488281 C 41.851562 183.898438 30.8125 178.140625 23.058594 170.476562 C 21.886719 169.320312 20.789062 168.117188 19.785156 166.867188 C 15.207031 161.171875 12.992188 154.128906 13.066406 147.082031 C 13.117188 143.042969 13.917969 138.996094 15.464844 135.207031 C 15.289062 134.839844 15.152344 134.457031 15.042969 134.0625 Z M 15.042969 134.0625 " fill-opacity="1" fill-rule="evenodd"/></g><path fill="#f8f8f8" d="M 37.527344 120.601562 C 37.972656 121.035156 38.339844 121.546875 38.601562 122.101562 C 43.421875 122.167969 48.320312 122.488281 52.8125 122.375 C 54.027344 122.277344 55.230469 122.140625 56.425781 121.953125 C 51.15625 125.761719 45.070312 128.210938 38.882812 130.503906 C 35.046875 131.925781 31.09375 133.296875 27.414062 135.105469 C 25.734375 135.933594 24.078125 136.871094 22.570312 137.992188 C 19.015625 140.617188 16.816406 143.765625 15.96875 148.152344 C 15.367188 151.320312 15.839844 154.613281 16.75 157.773438 C 13.269531 143.832031 25.699219 138.089844 25.699219 138.089844 C 29.890625 135.585938 35.289062 133.796875 40.941406 131.667969 C 37.519531 135.550781 37.378906 141.894531 38.464844 146.785156 C 36.941406 138.996094 39.515625 133.144531 43.363281 130.773438 C 44.261719 140.355469 54.242188 136.003906 49.585938 131.378906 C 50.164062 132.152344 50.378906 132.882812 50.34375 133.511719 C 50.179688 132.929688 49.816406 132.289062 49.191406 131.578125 C 50.488281 133.316406 49.988281 134.828125 48.90625 135.410156 C 46.398438 136.757812 43.476562 132.667969 45.429688 130.195312 C 45.5625 130.03125 45.710938 129.871094 45.871094 129.71875 C 46.128906 129.609375 46.386719 129.5 46.644531 129.390625 C 49.867188 128.71875 53.292969 129.691406 55.582031 132.253906 C 54.109375 129.839844 51.511719 128.570312 48.824219 128.414062 C 53.976562 126.003906 58.996094 122.929688 63.171875 118.40625 C 63.171875 118.40625 55.597656 121.644531 42.457031 120.519531 C 43.214844 120.492188 44.027344 120.449219 44.882812 120.375 L 45.03125 120.367188 C 46.632812 120.222656 60.921875 118.75 68.25 110.222656 C 68.046875 110.433594 67.828125 110.644531 67.652344 110.808594 C 66.410156 111.960938 64.949219 112.945312 63.472656 113.761719 C 56.128906 117.824219 46.589844 118.734375 37.492188 119.117188 C 37.546875 119.609375 37.554688 120.109375 37.527344 120.601562 Z M 37.527344 120.601562 " fill-opacity="1" fill-rule="evenodd"/><path fill="#f8f8f8" d="M 36.21875 114.167969 C 43.203125 112.015625 49.886719 112.191406 49.886719 112.191406 C 44.867188 111.054688 40.277344 110.816406 36.117188 111.308594 C 36.46875 112.058594 36.632812 112.867188 36.40625 113.679688 C 36.359375 113.855469 36.296875 114.015625 36.21875 114.167969 Z M 36.21875 114.167969 " fill-opacity="1" fill-rule="evenodd"/><path fill="#f8f8f8" d="M 32.9375 149.082031 C 29.789062 147.3125 26.367188 145.777344 23.28125 148.570312 C 21.535156 150.152344 21.042969 152.597656 21.613281 154.828125 C 22.347656 157.726562 24.824219 160.695312 26.757812 162.90625 C 29.511719 166.054688 32.4375 169.015625 35.03125 172.316406 C 37.179688 175.0625 39.117188 178.035156 40.335938 181.308594 C 40.660156 179.386719 40.617188 177.503906 40.316406 175.457031 C 39.957031 173.046875 39.265625 170.625 39.210938 168.1875 C 39.140625 164.878906 40.320312 162.289062 42.476562 159.8125 C 44.027344 158.03125 45.929688 156.480469 47.851562 155.113281 C 50.667969 153.105469 53.71875 151.347656 56.777344 149.722656 C 57.863281 149.144531 58.960938 148.589844 60.0625 148.039062 C 60.949219 147.582031 61.84375 147.125 62.707031 146.621094 C 63.789062 145.984375 65.105469 145.117188 65.652344 143.9375 C 66.023438 143.144531 66.023438 142.296875 65.867188 141.457031 C 65.617188 140.082031 64.953125 138.632812 64.316406 137.398438 C 62.304688 133.507812 61.898438 129.867188 63.847656 125.878906 C 64.816406 123.90625 66.148438 122.175781 67.328125 120.339844 C 68.875 117.941406 69.65625 115.492188 69.386719 113.179688 C 69.394531 114.636719 69.046875 116.113281 68.265625 117.617188 C 67.84375 118.433594 67.324219 119.195312 66.753906 119.914062 C 65.960938 120.921875 65.078125 121.84375 64.183594 122.753906 C 63.410156 123.539062 62.601562 124.335938 61.90625 125.191406 C 61.113281 126.15625 60.675781 127.28125 60.484375 128.507812 C 60.421875 128.902344 60.390625 129.300781 60.378906 129.703125 C 60.320312 131.535156 60.699219 133.363281 61.085938 135.148438 C 61.246094 135.878906 61.421875 136.636719 61.511719 137.378906 C 61.582031 137.964844 61.613281 138.667969 61.308594 139.195312 C 61.21875 139.347656 61.109375 139.492188 60.984375 139.617188 C 60.015625 140.589844 58.210938 140.5 56.941406 140.433594 C 56.210938 140.398438 54.746094 140.257812 54.078125 140.496094 C 54.039062 140.507812 54.007812 140.527344 53.980469 140.550781 C 53.628906 140.847656 53.628906 141.855469 53.648438 142.261719 C 53.683594 142.933594 53.796875 143.609375 53.933594 144.265625 L 54.296875 146.011719 L 52.820312 145.011719 C 52.402344 144.734375 51.921875 144.476562 51.453125 144.292969 C 51.167969 144.179688 50.167969 143.816406 49.972656 144.226562 C 49.679688 144.824219 49.921875 145.75 50.113281 146.335938 L 50.464844 147.417969 L 49.335938 147.273438 C 48.691406 147.199219 45.65625 146.78125 45.191406 147.484375 C 45.035156 147.71875 44.972656 148.234375 44.921875 148.507812 C 44.800781 149.21875 44.648438 149.84375 44.316406 150.492188 C 43.1875 152.726562 40.980469 152.851562 38.84375 152.15625 C 37.835938 151.824219 36.859375 151.320312 35.9375 150.804688 C 34.925781 150.242188 33.941406 149.644531 32.9375 149.082031 Z M 32.9375 149.082031 " fill-opacity="1" fill-rule="evenodd"/><path fill="#fe8027" d="M 323.820312 140.933594 C 323.136719 139.074219 321.976562 137.429688 320.714844 135.925781 C 319.851562 134.898438 318.558594 133.382812 317.101562 133.304688 C 315.421875 133.207031 315.773438 135.957031 316.140625 136.84375 C 317.179688 139.339844 320.152344 140.015625 322.230469 141.332031 C 322.695312 141.628906 323.113281 140.886719 322.660156 140.601562 C 321.058594 139.585938 319.15625 139.042969 317.765625 137.726562 C 316.933594 136.941406 316.46875 135.792969 316.734375 134.664062 C 316.933594 133.816406 317.632812 133.726562 318.09375 134.023438 C 320.25 135.429688 322.140625 138.789062 323.015625 141.164062 C 323.191406 141.671875 324.007812 141.453125 323.820312 140.933594 Z M 323.820312 140.933594 " fill-opacity="1" fill-rule="nonzero"/><path fill="#fe8027" d="M 325.191406 140.746094 C 324.894531 138.867188 324.617188 136.988281 324.382812 135.109375 C 324.273438 134.234375 324.175781 133.363281 324.085938 132.488281 C 324.03125 131.992188 324.019531 131.527344 324.085938 131.027344 C 324.285156 129.601562 325.988281 129.835938 326.707031 130.453125 C 328.207031 131.757812 326.75 134.421875 326.175781 135.804688 C 325.480469 137.507812 324.683594 139.265625 324.273438 141.054688 C 324.152344 141.585938 324.96875 141.816406 325.09375 141.277344 C 325.722656 138.535156 326.972656 136.046875 327.722656 133.363281 C 328.21875 131.59375 327.546875 129.515625 325.589844 129.140625 C 323.753906 128.773438 322.871094 130.113281 322.925781 131.539062 C 323.046875 134.488281 323.910156 138.070312 324.382812 140.988281 C 324.460938 141.507812 325.269531 141.285156 325.191406 140.746094 Z M 325.191406 140.746094 " fill-opacity="1" fill-rule="nonzero"/><g clip-path="url(#6eca1d295f)"><path fill="#fe8027" d="M 322.503906 142.402344 C 319.398438 142.390625 316.183594 142.09375 313.023438 142.070312 C 311.363281 142.058594 309.671875 142.644531 309.949219 144.589844 C 310.269531 146.800781 313.851562 147.632812 315.488281 147.761719 C 318.292969 147.984375 319.851562 145.175781 321.753906 143.417969 C 322.152344 143.042969 321.554688 142.445312 321.15625 142.824219 C 319.941406 143.949219 318.273438 146.160156 316.546875 146.371094 C 314.890625 146.570312 311.410156 146.195312 310.757812 144.371094 C 310.058594 142.402344 315.628906 142.933594 316.347656 142.933594 C 318.394531 142.945312 320.449219 142.957031 322.496094 142.964844 C 323.035156 142.964844 323.070312 142.402344 322.503906 142.402344 Z M 322.503906 142.402344 " fill-opacity="1" fill-rule="nonzero"/></g><path fill="#fe8027" d="M 326.78125 141.617188 C 328.097656 140.292969 328.882812 139 330.253906 137.683594 C 330.984375 136.988281 331.722656 136.335938 332.476562 135.660156 C 332.972656 135.207031 333.503906 134.863281 334.132812 134.621094 C 335.183594 134.210938 336.433594 134.820312 336.246094 136.222656 C 336.011719 137.9375 333.203125 139.074219 331.867188 139.726562 C 329.988281 140.644531 327.953125 141.210938 325.910156 141.5625 C 325.367188 141.652344 325.601562 142.46875 326.132812 142.378906 C 328.925781 141.917969 332.695312 140.964844 335.148438 139.550781 C 336.542969 138.753906 338.011719 136.976562 336.953125 134.976562 C 336.035156 133.25 333.921875 133.472656 332.5625 134.53125 C 330.054688 136.476562 328.386719 138.8125 326.1875 141.085938 C 325.808594 141.484375 325.84375 142.050781 326.21875 141.605469 L 326.78125 141.605469 Z M 326.78125 141.617188 " fill-opacity="1" fill-rule="nonzero"/><path fill="#fe8027" d="M 323.929688 145.011719 C 325.058594 146.371094 326.164062 147.742188 327.246094 149.125 C 327.878906 149.929688 328.484375 150.746094 329.105469 151.566406 C 329.988281 152.757812 330.308594 154.914062 328.144531 154.515625 C 326.175781 154.152344 326.085938 151.132812 325.867188 149.640625 C 325.601562 147.828125 325.148438 146.050781 324.59375 144.304688 C 324.429688 143.785156 323.609375 144.003906 323.777344 144.523438 C 324.628906 147.210938 324.828125 149.972656 325.546875 152.671875 C 326 154.351562 327.414062 155.644531 329.191406 155.335938 C 331.203125 154.992188 330.894531 152.78125 330.097656 151.511719 C 328.519531 149 326.417969 146.679688 324.527344 144.414062 C 324.1875 143.996094 323.589844 144.601562 323.929688 145.011719 Z M 323.929688 145.011719 " fill-opacity="1" fill-rule="nonzero"/><path fill="#fe8027" d="M 322.097656 145.773438 C 321.765625 147.476562 321.300781 149.464844 320.816406 151.15625 C 320.472656 152.339844 318.933594 156.507812 316.859375 153.65625 C 315.507812 151.796875 318.859375 149.5 319.972656 148.371094 C 321.179688 147.167969 322.261719 145.839844 323.277344 144.46875 C 323.601562 144.027344 322.871094 143.609375 322.550781 144.039062 C 321.675781 145.222656 320.75 146.335938 319.742188 147.410156 C 318.859375 148.359375 317.742188 149.179688 317 150.261719 C 315.941406 151.808594 315.664062 153.796875 317.367188 154.96875 C 318.902344 156.03125 320.769531 155.511719 321.257812 154.230469 C 322.296875 151.5 322.570312 147.132812 323.289062 144.304688 C 323.421875 143.773438 322.417969 144.117188 322.085938 144.648438 L 322.085938 145.773438 Z M 322.097656 145.773438 " fill-opacity="1" fill-rule="nonzero"/><path fill="#fe8027" d="M 325.6875 144.304688 C 327.214844 146.007812 329.304688 147.222656 331.335938 148.214844 C 332.808594 148.925781 334.886719 149.917969 336.554688 149.410156 C 338.410156 148.835938 337.285156 146.269531 336.398438 145.386719 C 334.078125 143.066406 330 143.796875 327.070312 143.296875 C 326.539062 143.210938 325.457031 144.027344 326 144.117188 C 328.453125 144.535156 331.890625 143.683594 334.265625 144.503906 C 335.601562 144.96875 336.996094 146.757812 336.621094 148.316406 C 336.488281 148.890625 335.371094 148.691406 334.984375 148.636719 C 331.910156 148.140625 328.351562 146.027344 326.273438 143.730469 C 325.921875 143.296875 325.324219 143.90625 325.6875 144.304688 Z M 325.6875 144.304688 " fill-opacity="1" fill-rule="nonzero"/><path fill="#fe8027" d="M 324.339844 141.761719 C 323.964844 141.730469 323.621094 141.972656 323.476562 142.3125 C 323.3125 142.703125 323.410156 143.066406 323.675781 143.375 C 324.207031 143.996094 325.28125 143.761719 325.644531 143.097656 C 325.753906 142.898438 325.699219 142.636719 325.488281 142.523438 C 325.101562 142.3125 324.726562 142.117188 324.339844 141.90625 C 323.855469 141.652344 323.433594 142.378906 323.910156 142.636719 C 324.296875 142.84375 324.671875 143.042969 325.058594 143.253906 C 325.003906 143.066406 324.960938 142.867188 324.902344 142.679688 C 324.792969 142.878906 324.5625 142.945312 324.363281 142.84375 C 324.230469 142.777344 324.175781 142.601562 324.339844 142.613281 C 324.882812 142.65625 324.882812 141.804688 324.339844 141.761719 Z M 324.339844 141.761719 " fill-opacity="1" fill-rule="nonzero"/><path fill="#fe8027" d="M 346.832031 137.074219 C 346.457031 136.058594 345.828125 135.164062 345.132812 134.34375 C 344.65625 133.78125 343.960938 132.953125 343.152344 132.910156 C 342.234375 132.851562 342.421875 134.355469 342.632812 134.84375 C 343.195312 136.203125 344.820312 136.578125 345.960938 137.296875 C 346.214844 137.449219 346.445312 137.054688 346.191406 136.898438 C 345.320312 136.347656 344.28125 136.046875 343.515625 135.328125 C 343.0625 134.898438 342.808594 134.269531 342.953125 133.660156 C 343.0625 133.195312 343.441406 133.140625 343.695312 133.304688 C 344.867188 134.070312 345.90625 135.902344 346.378906 137.207031 C 346.492188 137.472656 346.945312 137.363281 346.832031 137.074219 Z M 346.832031 137.074219 " fill-opacity="1" fill-rule="nonzero"/><path fill="#fe8027" d="M 347.585938 136.976562 C 347.417969 135.949219 347.277344 134.917969 347.144531 133.890625 C 347.085938 133.417969 347.03125 132.941406 346.976562 132.453125 C 346.945312 132.191406 346.945312 131.925781 346.976562 131.660156 C 347.085938 130.875 348.015625 131.007812 348.402344 131.339844 C 349.222656 132.058594 348.425781 133.503906 348.117188 134.269531 C 347.738281 135.195312 347.296875 136.15625 347.078125 137.128906 C 347.011719 137.417969 347.453125 137.539062 347.519531 137.253906 C 347.859375 135.75 348.546875 134.402344 348.957031 132.929688 C 349.222656 131.957031 348.855469 130.832031 347.796875 130.621094 C 346.789062 130.421875 346.3125 131.152344 346.347656 131.925781 C 346.414062 133.539062 346.886719 135.496094 347.144531 137.085938 C 347.1875 137.394531 347.628906 137.261719 347.585938 136.976562 Z M 347.585938 136.976562 " fill-opacity="1" fill-rule="nonzero"/><path fill="#fe8027" d="M 346.113281 137.882812 C 344.421875 137.871094 342.65625 137.714844 340.929688 137.707031 C 340.023438 137.707031 339.097656 138.015625 339.25 139.085938 C 339.429688 140.292969 341.382812 140.746094 342.28125 140.820312 C 343.816406 140.945312 344.667969 139.40625 345.707031 138.445312 C 345.925781 138.246094 345.59375 137.914062 345.375 138.113281 C 344.710938 138.734375 343.804688 139.9375 342.855469 140.046875 C 341.957031 140.160156 340.046875 139.949219 339.691406 138.953125 C 339.316406 137.882812 342.355469 138.167969 342.742188 138.167969 C 343.859375 138.167969 344.988281 138.179688 346.105469 138.179688 C 346.414062 138.191406 346.425781 137.882812 346.113281 137.882812 Z M 346.113281 137.882812 " fill-opacity="1" fill-rule="nonzero"/><g clip-path="url(#77d9abf7b6)"><path fill="#fe8027" d="M 348.457031 137.527344 C 349.175781 136.535156 349.609375 136.058594 350.359375 135.339844 C 350.757812 134.953125 351.167969 134.589844 351.574219 134.210938 C 351.851562 133.96875 352.140625 133.769531 352.480469 133.636719 C 353.054688 133.417969 353.742188 133.738281 353.632812 134.511719 C 353.507812 135.449219 351.972656 136.070312 351.242188 136.421875 C 350.214844 136.921875 349.109375 137.230469 347.984375 137.417969 C 347.683594 137.460938 347.816406 137.914062 348.105469 137.859375 C 349.628906 137.605469 351.6875 137.085938 353.035156 136.3125 C 353.796875 135.871094 354.605469 134.910156 354.019531 133.816406 C 353.519531 132.875 352.371094 132.996094 351.621094 133.570312 C 350.25 134.632812 349.34375 135.949219 348.136719 137.195312 C 347.925781 137.40625 347.949219 137.628906 348.160156 137.515625 L 348.457031 137.515625 Z M 348.457031 137.527344 " fill-opacity="1" fill-rule="nonzero"/></g><path fill="#fe8027" d="M 346.898438 139.308594 C 347.519531 140.046875 348.117188 140.800781 348.710938 141.550781 C 349.054688 141.992188 349.386719 142.4375 349.730469 142.890625 C 350.214844 143.542969 350.390625 144.714844 349.210938 144.503906 C 348.136719 144.304688 348.082031 142.65625 347.960938 141.839844 C 347.816406 140.84375 347.5625 139.871094 347.265625 138.921875 C 347.175781 138.632812 346.722656 138.753906 346.820312 139.042969 C 347.285156 140.511719 347.398438 142.027344 347.796875 143.496094 C 348.039062 144.414062 348.8125 145.121094 349.796875 144.957031 C 350.890625 144.769531 350.722656 143.5625 350.292969 142.867188 C 349.429688 141.496094 348.28125 140.226562 347.253906 138.988281 C 347.042969 138.753906 346.710938 139.074219 346.898438 139.308594 Z M 346.898438 139.308594 " fill-opacity="1" fill-rule="nonzero"/><path fill="#fe8027" d="M 345.859375 139.726562 C 345.527344 140.65625 345.441406 141.738281 345.175781 142.667969 C 344.988281 143.320312 344.160156 145.597656 343.019531 144.027344 C 342.28125 143.011719 344.113281 141.75 344.722656 141.144531 C 345.375 140.480469 345.972656 139.761719 346.523438 139.007812 C 346.699219 138.765625 346.304688 138.535156 346.125 138.777344 C 345.652344 139.417969 345.140625 140.039062 344.589844 140.625 C 344.101562 141.144531 343.496094 141.597656 343.085938 142.183594 C 342.511719 143.023438 342.355469 144.117188 343.285156 144.757812 C 344.125 145.332031 345.140625 145.054688 345.40625 144.359375 C 345.980469 142.867188 346.113281 140.480469 346.5 138.941406 C 346.578125 138.65625 345.828125 138.84375 345.828125 139.132812 L 345.828125 139.726562 Z M 345.859375 139.726562 " fill-opacity="1" fill-rule="nonzero"/><g clip-path="url(#c7e35a4afc)"><path fill="#fe8027" d="M 347.859375 138.921875 C 348.703125 139.847656 349.839844 140.511719 350.945312 141.054688 C 351.75 141.441406 352.878906 141.984375 353.796875 141.707031 C 354.8125 141.398438 354.195312 139.992188 353.707031 139.507812 C 352.4375 138.234375 350.214844 138.632812 348.613281 138.367188 C 348.324219 138.324219 347.730469 138.765625 348.027344 138.8125 C 349.363281 139.042969 351.242188 138.566406 352.546875 139.019531 C 353.277344 139.273438 354.039062 140.257812 353.839844 141.097656 C 353.761719 141.40625 353.15625 141.308594 352.945312 141.277344 C 351.265625 141 349.320312 139.847656 348.191406 138.601562 C 347.984375 138.367188 347.664062 138.699219 347.859375 138.921875 Z M 347.859375 138.921875 " fill-opacity="1" fill-rule="nonzero"/></g><path fill="#fe8027" d="M 347.121094 137.527344 C 346.910156 137.507812 346.722656 137.640625 346.644531 137.828125 C 346.558594 138.035156 346.613281 138.234375 346.757812 138.402344 C 347.042969 138.746094 347.628906 138.613281 347.828125 138.257812 C 347.882812 138.148438 347.859375 138.003906 347.738281 137.9375 C 347.53125 137.828125 347.320312 137.714844 347.109375 137.605469 C 346.84375 137.460938 346.613281 137.859375 346.878906 138.003906 C 347.085938 138.113281 347.296875 138.226562 347.507812 138.335938 C 347.472656 138.226562 347.453125 138.125 347.417969 138.015625 C 347.363281 138.125 347.230469 138.160156 347.121094 138.101562 C 347.042969 138.070312 347.019531 137.96875 347.109375 137.980469 C 347.417969 138.015625 347.417969 137.550781 347.121094 137.527344 Z M 347.121094 137.527344 " fill-opacity="1" fill-rule="nonzero"/><path fill="#fe8027" d="M 337.152344 124.230469 C 338.222656 124.089844 339.238281 123.65625 340.191406 123.160156 C 340.84375 122.816406 341.804688 122.308594 342.015625 121.535156 C 342.257812 120.652344 340.753906 120.519531 340.246094 120.605469 C 338.785156 120.871094 338.078125 122.375 337.140625 123.324219 C 336.929688 123.535156 337.273438 123.855469 337.484375 123.632812 C 338.210938 122.90625 338.730469 121.945312 339.59375 121.359375 C 340.113281 121.003906 340.777344 120.894531 341.351562 121.167969 C 341.78125 121.378906 341.75 121.753906 341.527344 121.976562 C 340.523438 122.960938 338.511719 123.578125 337.140625 123.765625 C 336.832031 123.8125 336.851562 124.265625 337.152344 124.230469 Z M 337.152344 124.230469 " fill-opacity="1" fill-rule="nonzero"/><path fill="#fe8027" d="M 337.09375 124.984375 C 338.132812 125.039062 339.164062 125.117188 340.203125 125.214844 C 340.675781 125.257812 341.164062 125.316406 341.636719 125.359375 C 341.902344 125.390625 342.15625 125.4375 342.421875 125.523438 C 343.164062 125.800781 342.84375 126.683594 342.421875 126.996094 C 341.550781 127.648438 340.300781 126.554688 339.625 126.078125 C 338.796875 125.503906 337.957031 124.871094 337.050781 124.441406 C 336.785156 124.308594 336.566406 124.71875 336.832031 124.851562 C 338.222656 125.515625 339.394531 126.464844 340.742188 127.183594 C 341.628906 127.65625 342.820312 127.535156 343.253906 126.542969 C 343.660156 125.601562 343.054688 124.972656 342.289062 124.839844 C 340.699219 124.5625 338.6875 124.597656 337.074219 124.507812 C 336.773438 124.507812 336.796875 124.960938 337.09375 124.984375 Z M 337.09375 124.984375 " fill-opacity="1" fill-rule="nonzero"/><g clip-path="url(#9603788fcf)"><path fill="#fe8027" d="M 336.519531 123.359375 C 336.898438 121.699219 337.425781 120.019531 337.8125 118.339844 C 338.011719 117.457031 337.902344 116.484375 336.832031 116.40625 C 335.613281 116.316406 334.753906 118.128906 334.488281 118.992188 C 334.035156 120.460938 335.347656 121.625 336.066406 122.851562 C 336.222656 123.105469 336.609375 122.859375 336.453125 122.597656 C 336 121.8125 335.019531 120.660156 335.105469 119.722656 C 335.195312 118.828125 335.800781 117.003906 336.851562 116.871094 C 337.980469 116.726562 337.050781 119.632812 336.964844 120.019531 C 336.71875 121.113281 336.464844 122.207031 336.222656 123.292969 C 336.15625 123.578125 336.453125 123.65625 336.519531 123.359375 Z M 336.519531 123.359375 " fill-opacity="1" fill-rule="nonzero"/></g><path fill="#fe8027" d="M 336.289062 125.691406 C 336.964844 126.574219 337.515625 127.136719 338.058594 128.023438 C 338.34375 128.5 338.644531 128.972656 338.910156 129.449219 C 339.085938 129.769531 339.230469 130.089844 339.285156 130.453125 C 339.382812 131.0625 338.917969 131.660156 338.191406 131.394531 C 337.304688 131.074219 337.027344 129.4375 336.839844 128.640625 C 336.574219 127.535156 336.511719 126.386719 336.566406 125.25 C 336.574219 124.949219 336.121094 124.972656 336.101562 125.269531 C 336.023438 126.816406 336.089844 128.941406 336.554688 130.421875 C 336.820312 131.261719 337.59375 132.257812 338.777344 131.925781 C 339.804688 131.636719 339.9375 130.488281 339.527344 129.636719 C 338.785156 128.066406 337.660156 126.882812 336.707031 125.449219 C 336.542969 125.191406 336.121094 125.125 336.355469 125.390625 Z M 336.289062 125.691406 " fill-opacity="1" fill-rule="nonzero"/><path fill="#fe8027" d="M 334.960938 123.8125 C 334.109375 124.253906 333.25 124.683594 332.375 125.09375 C 331.867188 125.335938 331.371094 125.570312 330.863281 125.789062 C 330.121094 126.121094 328.9375 126.042969 329.402344 124.929688 C 329.824219 123.921875 331.449219 124.230469 332.277344 124.285156 C 333.269531 124.351562 334.277344 124.332031 335.273438 124.230469 C 335.570312 124.210938 335.546875 123.746094 335.25 123.765625 C 333.714844 123.910156 332.222656 123.679688 330.695312 123.757812 C 329.746094 123.800781 328.882812 124.398438 328.839844 125.390625 C 328.785156 126.507812 330 126.597656 330.773438 126.320312 C 332.296875 125.777344 333.78125 124.929688 335.214844 124.1875 C 335.472656 124.066406 335.226562 123.679688 334.960938 123.8125 Z M 334.960938 123.8125 " fill-opacity="1" fill-rule="nonzero"/><path fill="#fe8027" d="M 334.761719 122.773438 C 333.914062 122.296875 332.894531 121.898438 332.042969 121.433594 C 331.449219 121.113281 329.414062 119.800781 331.183594 119.027344 C 332.332031 118.527344 333.171875 120.574219 333.636719 121.300781 C 334.144531 122.085938 334.71875 122.816406 335.328125 123.523438 C 335.527344 123.746094 335.835938 123.414062 335.636719 123.179688 C 335.105469 122.574219 334.621094 121.945312 334.167969 121.292969 C 333.769531 120.707031 333.460938 120.007812 332.972656 119.488281 C 332.277344 118.738281 331.25 118.363281 330.417969 119.125 C 329.679688 119.820312 329.734375 120.871094 330.351562 121.292969 C 331.691406 122.164062 333.980469 122.851562 335.40625 123.558594 C 335.667969 123.691406 335.648438 122.960938 335.359375 122.894531 Z M 334.761719 122.773438 " fill-opacity="1" fill-rule="nonzero"/><path fill="#fe8027" d="M 335.140625 124.828125 C 334.054688 125.449219 333.160156 126.410156 332.386719 127.382812 C 331.835938 128.078125 331.0625 129.074219 331.136719 130.023438 C 331.226562 131.085938 332.730469 130.785156 333.304688 130.410156 C 334.820312 129.449219 334.90625 127.183594 335.515625 125.679688 C 335.625 125.402344 335.316406 124.738281 335.207031 125.015625 C 334.695312 126.277344 334.742188 128.210938 334.023438 129.382812 C 333.613281 130.046875 332.496094 130.574219 331.710938 130.1875 C 331.425781 130.046875 331.65625 129.480469 331.734375 129.28125 C 332.363281 127.703125 333.914062 126.042969 335.371094 125.214844 C 335.648438 125.070312 335.394531 124.683594 335.140625 124.828125 Z M 335.140625 124.828125 " fill-opacity="1" fill-rule="nonzero"/><path fill="#fe8027" d="M 336.652344 124.410156 C 336.71875 124.210938 336.632812 124 336.464844 123.878906 C 336.277344 123.746094 336.078125 123.757812 335.878906 123.855469 C 335.480469 124.066406 335.480469 124.664062 335.792969 124.9375 C 335.878906 125.015625 336.035156 125.027344 336.121094 124.929688 C 336.277344 124.75 336.433594 124.5625 336.585938 124.386719 C 336.785156 124.164062 336.445312 123.84375 336.246094 124.078125 C 336.089844 124.253906 335.933594 124.441406 335.78125 124.617188 C 335.890625 124.617188 336 124.605469 336.113281 124.605469 C 336.023438 124.53125 336.011719 124.398438 336.089844 124.296875 C 336.144531 124.230469 336.246094 124.230469 336.210938 124.308594 C 336.113281 124.597656 336.566406 124.695312 336.652344 124.410156 Z M 336.652344 124.410156 " fill-opacity="1" fill-rule="nonzero"/><g fill="#000000" fill-opacity="0.4"><g transform="translate(59.82503, 176.582273)"><g><path d="M 24.78125 -16.21875 C 25.15625 -16.363281 25.578125 -16.476562 26.046875 -16.5625 C 26.515625 -16.65625 27.144531 -16.703125 27.9375 -16.703125 C 28.738281 -16.703125 29.570312 -16.484375 30.4375 -16.046875 C 34.050781 -17.816406 36.519531 -20.394531 37.84375 -23.78125 C 38.320312 -24.976562 38.5625 -26.191406 38.5625 -27.421875 C 38.5625 -28.648438 38.226562 -29.691406 37.5625 -30.546875 C 37.195312 -30.347656 36.832031 -30.117188 36.46875 -29.859375 L 35.3125 -29.046875 C 33.238281 -27.484375 31.484375 -25.9375 30.046875 -24.40625 C 27.628906 -21.832031 25.054688 -18.71875 22.328125 -15.0625 C 19.609375 -11.40625 16.84375 -8.367188 14.03125 -5.953125 C 11.21875 -3.546875 8.535156 -1.816406 5.984375 -0.765625 C 4.597656 -0.222656 2.84375 0.046875 0.71875 0.046875 C -0.664062 0.046875 -1.863281 -0.285156 -2.875 -0.953125 C -3.863281 -1.628906 -4.359375 -2.441406 -4.359375 -3.390625 C -4.359375 -4.398438 -3.863281 -5.039062 -2.875 -5.3125 C -2.613281 -5.375 -2.351562 -5.40625 -2.09375 -5.40625 C -1.84375 -5.40625 -1.585938 -5.320312 -1.328125 -5.15625 C -1.066406 -4.988281 -0.9375 -4.722656 -0.9375 -4.359375 C -0.9375 -4.003906 -1.066406 -3.710938 -1.328125 -3.484375 C -1.585938 -3.253906 -1.945312 -3.140625 -2.40625 -3.140625 C -2.863281 -3.140625 -3.203125 -3.21875 -3.421875 -3.375 L -3.421875 -3.234375 C -3.421875 -2.453125 -3.03125 -1.8125 -2.25 -1.3125 C -1.476562 -0.820312 -0.59375 -0.578125 0.40625 -0.578125 C 1.414062 -0.578125 2.234375 -0.648438 2.859375 -0.796875 C 3.484375 -0.953125 4.171875 -1.242188 4.921875 -1.671875 C 5.671875 -2.109375 6.515625 -2.71875 7.453125 -3.5 C 8.390625 -4.28125 9.492188 -5.300781 10.765625 -6.5625 L 15.1875 -11.203125 L 21.109375 -17.65625 C 26.703125 -24.007812 32.007812 -28.515625 37.03125 -31.171875 C 35.195312 -33.003906 32.171875 -33.921875 27.953125 -33.921875 C 23.015625 -33.921875 18.144531 -32.113281 13.34375 -28.5 C 11.03125 -26.738281 9.117188 -24.878906 7.609375 -22.921875 C 6.078125 -20.890625 5.3125 -19.132812 5.3125 -17.65625 C 5.3125 -16.300781 5.984375 -15.429688 7.328125 -15.046875 C 7.703125 -14.929688 8.234375 -14.875 8.921875 -14.875 C 9.609375 -14.875 10.484375 -15.054688 11.546875 -15.421875 C 12.609375 -15.796875 13.675781 -16.316406 14.75 -16.984375 C 15.820312 -17.660156 16.867188 -18.460938 17.890625 -19.390625 C 18.910156 -20.328125 19.835938 -21.359375 20.671875 -22.484375 C 22.503906 -24.929688 23.601562 -27.484375 23.96875 -30.140625 C 24.070312 -30.648438 24.195312 -30.90625 24.34375 -30.90625 C 24.5 -30.90625 24.578125 -30.734375 24.578125 -30.390625 C 24.578125 -27.453125 23.726562 -24.691406 22.03125 -22.109375 C 20.5 -19.773438 18.453125 -17.894531 15.890625 -16.46875 C 13.378906 -15.0625 10.863281 -14.359375 8.34375 -14.359375 C 6.6875 -14.359375 5.546875 -14.976562 4.921875 -16.21875 C 4.703125 -16.632812 4.59375 -17.3125 4.59375 -18.25 C 4.59375 -19.195312 4.898438 -20.332031 5.515625 -21.65625 C 6.140625 -22.988281 7 -24.273438 8.09375 -25.515625 C 9.1875 -26.753906 10.484375 -27.914062 11.984375 -29 C 13.484375 -30.082031 15.101562 -31.03125 16.84375 -31.84375 C 20.59375 -33.582031 24.5 -34.453125 28.5625 -34.453125 C 32.632812 -34.453125 35.84375 -33.5625 38.1875 -31.78125 C 40.582031 -32.925781 42.578125 -33.5 44.171875 -33.5 C 44.691406 -33.5 44.953125 -33.414062 44.953125 -33.25 C 44.953125 -33.175781 44.804688 -33.117188 44.515625 -33.078125 C 44.234375 -33.035156 43.820312 -32.953125 43.28125 -32.828125 C 41.695312 -32.492188 40.207031 -31.957031 38.8125 -31.21875 C 40.3125 -29.78125 41.0625 -28.007812 41.0625 -25.90625 C 41.0625 -23.863281 40.101562 -21.816406 38.1875 -19.765625 C 36.414062 -17.867188 34.210938 -16.382812 31.578125 -15.3125 C 32.859375 -14.175781 33.5 -12.570312 33.5 -10.5 C 33.5 -8.726562 32.835938 -7.015625 31.515625 -5.359375 C 29.535156 -2.867188 26.816406 -1.203125 23.359375 -0.359375 C 22.234375 -0.0859375 21.191406 0.046875 20.234375 0.046875 C 19.285156 0.046875 18.554688 -0.0351562 18.046875 -0.203125 C 17.535156 -0.367188 17.125 -0.582031 16.8125 -0.84375 C 16.257812 -1.300781 15.984375 -1.84375 15.984375 -2.46875 C 15.984375 -3.101562 16.148438 -3.742188 16.484375 -4.390625 C 16.816406 -5.035156 17.273438 -5.675781 17.859375 -6.3125 C 18.441406 -6.957031 19.128906 -7.570312 19.921875 -8.15625 C 20.722656 -8.75 21.578125 -9.269531 22.484375 -9.71875 C 24.515625 -10.71875 26.476562 -11.21875 28.375 -11.21875 C 28.707031 -11.21875 28.875 -11.113281 28.875 -10.90625 C 28.875 -10.695312 28.539062 -10.59375 27.875 -10.59375 C 27.21875 -10.59375 26.445312 -10.472656 25.5625 -10.234375 C 24.675781 -9.992188 23.8125 -9.664062 22.96875 -9.25 C 22.125 -8.84375 21.328125 -8.367188 20.578125 -7.828125 C 19.828125 -7.285156 19.171875 -6.71875 18.609375 -6.125 C 17.378906 -4.851562 16.765625 -3.671875 16.765625 -2.578125 C 16.765625 -1.273438 17.859375 -0.625 20.046875 -0.625 C 21.578125 -0.625 23.191406 -1.195312 24.890625 -2.34375 C 27.597656 -4.164062 29.445312 -6.703125 30.4375 -9.953125 C 30.75 -11.035156 30.90625 -12.035156 30.90625 -12.953125 C 30.90625 -13.867188 30.785156 -14.519531 30.546875 -14.90625 C 28.910156 -14.34375 27.53125 -14.0625 26.40625 -14.0625 C 25.28125 -14.0625 24.53125 -14.179688 24.15625 -14.421875 C 23.78125 -14.660156 23.59375 -14.890625 23.59375 -15.109375 C 23.59375 -15.335938 23.695312 -15.539062 23.90625 -15.71875 C 24.125 -15.90625 24.414062 -16.070312 24.78125 -16.21875 Z M 29.6875 -15.71875 C 29.195312 -16.007812 28.617188 -16.15625 27.953125 -16.15625 C 27.296875 -16.15625 26.800781 -16.128906 26.46875 -16.078125 C 26.144531 -16.023438 25.851562 -15.960938 25.59375 -15.890625 C 25.070312 -15.742188 24.8125 -15.582031 24.8125 -15.40625 C 24.8125 -15.019531 25.273438 -14.828125 26.203125 -14.828125 C 27.128906 -14.828125 28.289062 -15.125 29.6875 -15.71875 Z M 29.6875 -15.71875 "/></g></g></g><g fill="#000000" fill-opacity="0.4"><g transform="translate(98.079308, 176.582273)"><g><path d="M 9.25 -2.0625 C 8.238281 -1.414062 7.144531 -0.882812 5.96875 -0.46875 C 4.800781 -0.0625 3.6875 0.140625 2.625 0.140625 C 1.570312 0.140625 0.769531 0.0351562 0.21875 -0.171875 C -0.320312 -0.390625 -0.769531 -0.691406 -1.125 -1.078125 C -2.625 -2.703125 -2.613281 -5.101562 -1.09375 -8.28125 C -0.445312 -9.6875 0.535156 -10.96875 1.859375 -12.125 C 3.191406 -13.28125 4.359375 -14.144531 5.359375 -14.71875 C 7.304688 -15.832031 9.132812 -16.390625 10.84375 -16.390625 C 12.53125 -16.390625 13.414062 -15.863281 13.5 -14.8125 C 13.601562 -13.101562 11.53125 -11.242188 7.28125 -9.234375 C 5.707031 -8.503906 3.734375 -7.75 1.359375 -6.96875 C 0.421875 -5.4375 -0.046875 -4.1875 -0.046875 -3.21875 C -0.046875 -2.25 0.203125 -1.5625 0.703125 -1.15625 C 1.203125 -0.75 1.9375 -0.546875 2.90625 -0.546875 C 3.875 -0.546875 4.921875 -0.753906 6.046875 -1.171875 C 7.171875 -1.585938 8.222656 -2.113281 9.203125 -2.75 C 10.179688 -3.382812 11.066406 -4.078125 11.859375 -4.828125 C 12.660156 -5.578125 13.367188 -6.296875 13.984375 -6.984375 C 14.597656 -7.671875 15.097656 -8.265625 15.484375 -8.765625 C 15.878906 -9.265625 16.148438 -9.582031 16.296875 -9.71875 L 16.796875 -9.3125 C 16.585938 -9.132812 16.269531 -8.773438 15.84375 -8.234375 C 15.425781 -7.691406 14.894531 -7.070312 14.25 -6.375 C 13.601562 -5.675781 12.859375 -4.941406 12.015625 -4.171875 C 11.179688 -3.410156 10.257812 -2.707031 9.25 -2.0625 Z M 1.921875 -7.796875 C 6.734375 -9.492188 9.832031 -11.175781 11.21875 -12.84375 C 11.6875 -13.40625 11.921875 -13.945312 11.921875 -14.46875 C 11.921875 -15.363281 11.503906 -15.8125 10.671875 -15.8125 C 9.203125 -15.8125 7.367188 -14.53125 5.171875 -11.96875 C 3.640625 -10.175781 2.554688 -8.785156 1.921875 -7.796875 Z M 1.921875 -7.796875 "/></g></g></g><g fill="#000000" fill-opacity="0.4"><g transform="translate(114.203997, 176.582273)"><g><path d="M 9.546875 0.046875 C 7.953125 0.046875 7.15625 -0.445312 7.15625 -1.4375 C 7.15625 -2.25 7.617188 -3.269531 8.546875 -4.5 L 10.046875 -6.40625 L 9.8125 -6.515625 C 7.132812 -3.210938 4.601562 -1.132812 2.21875 -0.28125 C 1.570312 -0.0625 1.007812 0.046875 0.53125 0.046875 C -1.4375 0.046875 -2.421875 -1 -2.421875 -3.09375 C -2.421875 -5.539062 -1.4375 -7.882812 0.53125 -10.125 C 3.425781 -13.5 6.34375 -15.5 9.28125 -16.125 C 10.15625 -16.300781 10.90625 -16.390625 11.53125 -16.390625 C 12.15625 -16.390625 12.644531 -16.34375 13 -16.25 C 13.363281 -16.164062 13.679688 -16.046875 13.953125 -15.890625 C 14.523438 -15.523438 14.8125 -15.070312 14.8125 -14.53125 C 14.8125 -14 14.710938 -13.492188 14.515625 -13.015625 L 16.875 -15.90625 C 17.300781 -15.78125 17.695312 -15.71875 18.0625 -15.71875 C 19 -15.71875 19.675781 -15.75 20.09375 -15.8125 L 12.03125 -6.09375 C 10.113281 -3.863281 9.15625 -2.296875 9.15625 -1.390625 C 9.15625 -0.878906 9.457031 -0.625 10.0625 -0.625 C 10.675781 -0.625 11.375 -0.804688 12.15625 -1.171875 C 12.945312 -1.535156 13.734375 -2.003906 14.515625 -2.578125 C 15.304688 -3.160156 16.070312 -3.800781 16.8125 -4.5 C 17.550781 -5.195312 18.234375 -5.878906 18.859375 -6.546875 C 19.492188 -7.222656 20.050781 -7.847656 20.53125 -8.421875 L 21.671875 -9.71875 L 22.171875 -9.3125 L 20.953125 -7.921875 C 16.359375 -2.609375 12.554688 0.046875 9.546875 0.046875 Z M 2.921875 -8.5625 C 0.671875 -5.832031 -0.453125 -3.597656 -0.453125 -1.859375 C -0.453125 -1.066406 -0.09375 -0.671875 0.625 -0.671875 C 2.945312 -0.671875 6.300781 -3.242188 10.6875 -8.390625 L 12.703125 -10.8125 C 13.660156 -12.257812 14.140625 -13.3125 14.140625 -13.96875 C 14.140625 -15.082031 13.582031 -15.640625 12.46875 -15.640625 C 10.945312 -15.640625 8.769531 -14.347656 5.9375 -11.765625 C 4.957031 -10.878906 3.953125 -9.8125 2.921875 -8.5625 Z M 2.921875 -8.5625 "/></g></g></g><g fill="#000000" fill-opacity="0.4"><g transform="translate(135.711565, 176.582273)"><g><path d="M -1.9375 -1.40625 C -1.9375 -0.832031 -1.554688 -0.546875 -0.796875 -0.546875 C 0.273438 -0.546875 1.425781 -0.953125 2.65625 -1.765625 C 5.300781 -3.535156 8.0625 -6.1875 10.9375 -9.71875 C 10.9375 -9.71875 12.742188 -11.894531 16.359375 -16.25 C 17.128906 -16.15625 17.820312 -16.109375 18.4375 -16.109375 C 19.0625 -16.109375 19.582031 -16.128906 20 -16.171875 L 17.65625 -13.46875 L 9.1875 -3.15625 C 8.625 -2.46875 8.34375 -1.910156 8.34375 -1.484375 C 8.34375 -0.910156 8.722656 -0.625 9.484375 -0.625 C 10.253906 -0.625 11.050781 -0.828125 11.875 -1.234375 C 12.695312 -1.640625 13.519531 -2.148438 14.34375 -2.765625 C 15.164062 -3.390625 15.96875 -4.070312 16.75 -4.8125 C 17.53125 -5.5625 18.238281 -6.269531 18.875 -6.9375 L 21.390625 -9.71875 L 21.875 -9.3125 L 20.9375 -8.25 C 20.46875 -7.726562 19.898438 -7.125 19.234375 -6.4375 L 17.015625 -4.265625 C 13.960938 -1.390625 11.429688 0.046875 9.421875 0.046875 C 8.773438 0.046875 8.238281 -0.128906 7.8125 -0.484375 C 7.382812 -0.847656 7.15625 -1.332031 7.125 -1.9375 C 7.09375 -3.101562 7.5 -4.421875 8.34375 -5.890625 C 4.675781 -1.929688 1.566406 0.046875 -0.984375 0.046875 C -2.421875 0.046875 -3.335938 -0.460938 -3.734375 -1.484375 C -3.847656 -1.773438 -3.910156 -2.140625 -3.921875 -2.578125 C -3.941406 -3.023438 -3.832031 -3.5625 -3.59375 -4.1875 C -3.363281 -4.8125 -3.015625 -5.484375 -2.546875 -6.203125 C -2.085938 -6.929688 -1.523438 -7.71875 -0.859375 -8.5625 L 3.453125 -13.78125 C 4.117188 -14.613281 4.828125 -15.4375 5.578125 -16.25 C 6.203125 -16.15625 6.703125 -16.109375 7.078125 -16.109375 L 7.890625 -16.109375 C 8.578125 -16.109375 9.019531 -16.128906 9.21875 -16.171875 C 7.34375 -14.128906 6.03125 -12.65625 5.28125 -11.75 L 0.53125 -6.03125 C -1.144531 -4.082031 -1.96875 -2.539062 -1.9375 -1.40625 Z M -1.9375 -1.40625 "/></g></g></g><g fill="#000000" fill-opacity="0.4"><g transform="translate(156.932045, 176.582273)"><g><path d="M -2.390625 -1.390625 C -2.390625 -0.910156 -2.003906 -0.660156 -1.234375 -0.640625 C -0.472656 -0.628906 0.289062 -0.796875 1.0625 -1.140625 C 1.832031 -1.492188 2.597656 -1.941406 3.359375 -2.484375 C 4.128906 -3.023438 4.875 -3.632812 5.59375 -4.3125 C 6.3125 -4.988281 6.984375 -5.660156 7.609375 -6.328125 C 8.234375 -7.003906 8.789062 -7.640625 9.28125 -8.234375 L 10.53125 -9.71875 L 11.046875 -9.3125 L 9.8125 -7.875 C 5.363281 -2.59375 1.625 0.046875 -1.40625 0.046875 C -2.289062 0.046875 -2.953125 -0.125 -3.390625 -0.46875 C -3.828125 -0.820312 -4.046875 -1.207031 -4.046875 -1.625 C -4.046875 -2.039062 -4.023438 -2.382812 -3.984375 -2.65625 C -3.941406 -2.925781 -3.859375 -3.222656 -3.734375 -3.546875 C -3.609375 -3.878906 -3.421875 -4.269531 -3.171875 -4.71875 C -2.921875 -5.164062 -2.585938 -5.707031 -2.171875 -6.34375 L 1.5625 -11.71875 L 7.734375 -20.40625 L 5.84375 -20.40625 C 5.363281 -20.40625 5.125 -20.519531 5.125 -20.75 C 5.125 -20.988281 5.425781 -21.109375 6.03125 -21.109375 L 8.203125 -21.109375 L 12.640625 -27.328125 C 13.753906 -27.148438 14.859375 -27.148438 15.953125 -27.328125 L 11.34375 -21.109375 L 17.515625 -21.109375 C 17.960938 -21.109375 18.1875 -20.988281 18.1875 -20.75 C 18.1875 -20.519531 17.984375 -20.40625 17.578125 -20.40625 L 10.8125 -20.40625 L 0.90625 -6.9375 C -0.800781 -4.53125 -1.773438 -3.046875 -2.015625 -2.484375 C -2.265625 -1.929688 -2.390625 -1.566406 -2.390625 -1.390625 Z M -2.390625 -1.390625 "/></g></g></g><g fill="#000000" fill-opacity="0.4"><g transform="translate(167.291088, 176.582273)"><g><path d="M -2.171875 -1.671875 C -2.171875 -0.941406 -1.703125 -0.578125 -0.765625 -0.578125 C 0.171875 -0.578125 1.207031 -0.816406 2.34375 -1.296875 C 3.488281 -1.785156 4.613281 -2.421875 5.71875 -3.203125 C 7.84375 -4.691406 9.796875 -6.539062 11.578125 -8.75 C 14.390625 -11.957031 16.070312 -13.898438 16.625 -14.578125 C 16.625 -14.578125 17.054688 -15.109375 17.921875 -16.171875 C 18.546875 -16.054688 19 -16 19.28125 -16 C 20.09375 -16 20.707031 -16.035156 21.125 -16.109375 L 12.796875 -5.84375 L 8.5625 -0.171875 L 4.921875 4.5625 C 9.046875 2.59375 12.207031 0.625 14.40625 -1.34375 C 15.84375 -2.613281 17.191406 -4.015625 18.453125 -5.546875 L 21.890625 -9.71875 L 22.390625 -9.3125 L 19.375 -5.75 C 17.59375 -3.632812 16.101562 -2.054688 14.90625 -1.015625 C 13.707031 0.015625 12.613281 0.863281 11.625 1.53125 C 9.75 2.769531 7.238281 4.132812 4.09375 5.625 C 1.125 9.34375 -1.109375 11.925781 -2.609375 13.375 C -4.117188 14.820312 -5.3125 15.851562 -6.1875 16.46875 C -7.070312 17.082031 -7.925781 17.566406 -8.75 17.921875 C -10.15625 18.523438 -11.820312 18.828125 -13.75 18.828125 C -14.726562 18.828125 -15.378906 18.484375 -15.703125 17.796875 C -15.796875 17.609375 -15.84375 17.304688 -15.84375 16.890625 C -15.84375 16.472656 -15.570312 15.894531 -15.03125 15.15625 C -14.5 14.414062 -13.585938 13.59375 -12.296875 12.6875 C -9.710938 10.863281 -5.25 8.613281 1.09375 5.9375 L 10.84375 -6.40625 L 10.578125 -6.515625 C 9.054688 -4.878906 7.507812 -3.582031 5.9375 -2.625 C 2.976562 -0.84375 0.613281 0.046875 -1.15625 0.046875 C -2.039062 0.046875 -2.707031 -0.128906 -3.15625 -0.484375 C -3.601562 -0.847656 -3.828125 -1.285156 -3.828125 -1.796875 C -3.828125 -2.316406 -3.78125 -2.789062 -3.6875 -3.21875 C -3.59375 -3.644531 -3.398438 -4.148438 -3.109375 -4.734375 C -2.515625 -5.867188 -1.390625 -7.597656 0.265625 -9.921875 C 0.992188 -10.835938 1.878906 -11.820312 2.921875 -12.875 L 6.25 -16.25 L 7.375 -16.125 C 7.625 -16.113281 8.015625 -16.109375 8.546875 -16.109375 C 9.085938 -16.109375 9.570312 -16.128906 10 -16.171875 C 8.582031 -14.898438 7.519531 -13.863281 6.8125 -13.0625 L 5.125 -11.15625 C 1.59375 -7.238281 -0.394531 -4.957031 -0.84375 -4.3125 C -1.726562 -3.03125 -2.171875 -2.148438 -2.171875 -1.671875 Z M 0.265625 6.96875 C -7.753906 10.394531 -12.582031 13.117188 -14.21875 15.140625 C -14.789062 15.859375 -15.078125 16.554688 -15.078125 17.234375 C -15.078125 17.398438 -14.96875 17.597656 -14.75 17.828125 C -14.53125 18.066406 -14.070312 18.1875 -13.375 18.1875 C -12.675781 18.1875 -11.898438 18.03125 -11.046875 17.71875 C -10.191406 17.40625 -9.238281 16.84375 -8.1875 16.03125 C -6.25 14.5 -3.429688 11.476562 0.265625 6.96875 Z M 0.265625 6.96875 "/></g></g></g><g fill="#000000" fill-opacity="0.4"><g transform="translate(189.037893, 176.582273)"><g/></g></g><g fill="#000000" fill-opacity="0.4"><g transform="translate(205.856381, 176.582273)"><g><path d="M 24.78125 -16.21875 C 25.15625 -16.363281 25.578125 -16.476562 26.046875 -16.5625 C 26.515625 -16.65625 27.144531 -16.703125 27.9375 -16.703125 C 28.738281 -16.703125 29.570312 -16.484375 30.4375 -16.046875 C 34.050781 -17.816406 36.519531 -20.394531 37.84375 -23.78125 C 38.320312 -24.976562 38.5625 -26.191406 38.5625 -27.421875 C 38.5625 -28.648438 38.226562 -29.691406 37.5625 -30.546875 C 37.195312 -30.347656 36.832031 -30.117188 36.46875 -29.859375 L 35.3125 -29.046875 C 33.238281 -27.484375 31.484375 -25.9375 30.046875 -24.40625 C 27.628906 -21.832031 25.054688 -18.71875 22.328125 -15.0625 C 19.609375 -11.40625 16.84375 -8.367188 14.03125 -5.953125 C 11.21875 -3.546875 8.535156 -1.816406 5.984375 -0.765625 C 4.597656 -0.222656 2.84375 0.046875 0.71875 0.046875 C -0.664062 0.046875 -1.863281 -0.285156 -2.875 -0.953125 C -3.863281 -1.628906 -4.359375 -2.441406 -4.359375 -3.390625 C -4.359375 -4.398438 -3.863281 -5.039062 -2.875 -5.3125 C -2.613281 -5.375 -2.351562 -5.40625 -2.09375 -5.40625 C -1.84375 -5.40625 -1.585938 -5.320312 -1.328125 -5.15625 C -1.066406 -4.988281 -0.9375 -4.722656 -0.9375 -4.359375 C -0.9375 -4.003906 -1.066406 -3.710938 -1.328125 -3.484375 C -1.585938 -3.253906 -1.945312 -3.140625 -2.40625 -3.140625 C -2.863281 -3.140625 -3.203125 -3.21875 -3.421875 -3.375 L -3.421875 -3.234375 C -3.421875 -2.453125 -3.03125 -1.8125 -2.25 -1.3125 C -1.476562 -0.820312 -0.59375 -0.578125 0.40625 -0.578125 C 1.414062 -0.578125 2.234375 -0.648438 2.859375 -0.796875 C 3.484375 -0.953125 4.171875 -1.242188 4.921875 -1.671875 C 5.671875 -2.109375 6.515625 -2.71875 7.453125 -3.5 C 8.390625 -4.28125 9.492188 -5.300781 10.765625 -6.5625 L 15.1875 -11.203125 L 21.109375 -17.65625 C 26.703125 -24.007812 32.007812 -28.515625 37.03125 -31.171875 C 35.195312 -33.003906 32.171875 -33.921875 27.953125 -33.921875 C 23.015625 -33.921875 18.144531 -32.113281 13.34375 -28.5 C 11.03125 -26.738281 9.117188 -24.878906 7.609375 -22.921875 C 6.078125 -20.890625 5.3125 -19.132812 5.3125 -17.65625 C 5.3125 -16.300781 5.984375 -15.429688 7.328125 -15.046875 C 7.703125 -14.929688 8.234375 -14.875 8.921875 -14.875 C 9.609375 -14.875 10.484375 -15.054688 11.546875 -15.421875 C 12.609375 -15.796875 13.675781 -16.316406 14.75 -16.984375 C 15.820312 -17.660156 16.867188 -18.460938 17.890625 -19.390625 C 18.910156 -20.328125 19.835938 -21.359375 20.671875 -22.484375 C 22.503906 -24.929688 23.601562 -27.484375 23.96875 -30.140625 C 24.070312 -30.648438 24.195312 -30.90625 24.34375 -30.90625 C 24.5 -30.90625 24.578125 -30.734375 24.578125 -30.390625 C 24.578125 -27.453125 23.726562 -24.691406 22.03125 -22.109375 C 20.5 -19.773438 18.453125 -17.894531 15.890625 -16.46875 C 13.378906 -15.0625 10.863281 -14.359375 8.34375 -14.359375 C 6.6875 -14.359375 5.546875 -14.976562 4.921875 -16.21875 C 4.703125 -16.632812 4.59375 -17.3125 4.59375 -18.25 C 4.59375 -19.195312 4.898438 -20.332031 5.515625 -21.65625 C 6.140625 -22.988281 7 -24.273438 8.09375 -25.515625 C 9.1875 -26.753906 10.484375 -27.914062 11.984375 -29 C 13.484375 -30.082031 15.101562 -31.03125 16.84375 -31.84375 C 20.59375 -33.582031 24.5 -34.453125 28.5625 -34.453125 C 32.632812 -34.453125 35.84375 -33.5625 38.1875 -31.78125 C 40.582031 -32.925781 42.578125 -33.5 44.171875 -33.5 C 44.691406 -33.5 44.953125 -33.414062 44.953125 -33.25 C 44.953125 -33.175781 44.804688 -33.117188 44.515625 -33.078125 C 44.234375 -33.035156 43.820312 -32.953125 43.28125 -32.828125 C 41.695312 -32.492188 40.207031 -31.957031 38.8125 -31.21875 C 40.3125 -29.78125 41.0625 -28.007812 41.0625 -25.90625 C 41.0625 -23.863281 40.101562 -21.816406 38.1875 -19.765625 C 36.414062 -17.867188 34.210938 -16.382812 31.578125 -15.3125 C 32.859375 -14.175781 33.5 -12.570312 33.5 -10.5 C 33.5 -8.726562 32.835938 -7.015625 31.515625 -5.359375 C 29.535156 -2.867188 26.816406 -1.203125 23.359375 -0.359375 C 22.234375 -0.0859375 21.191406 0.046875 20.234375 0.046875 C 19.285156 0.046875 18.554688 -0.0351562 18.046875 -0.203125 C 17.535156 -0.367188 17.125 -0.582031 16.8125 -0.84375 C 16.257812 -1.300781 15.984375 -1.84375 15.984375 -2.46875 C 15.984375 -3.101562 16.148438 -3.742188 16.484375 -4.390625 C 16.816406 -5.035156 17.273438 -5.675781 17.859375 -6.3125 C 18.441406 -6.957031 19.128906 -7.570312 19.921875 -8.15625 C 20.722656 -8.75 21.578125 -9.269531 22.484375 -9.71875 C 24.515625 -10.71875 26.476562 -11.21875 28.375 -11.21875 C 28.707031 -11.21875 28.875 -11.113281 28.875 -10.90625 C 28.875 -10.695312 28.539062 -10.59375 27.875 -10.59375 C 27.21875 -10.59375 26.445312 -10.472656 25.5625 -10.234375 C 24.675781 -9.992188 23.8125 -9.664062 22.96875 -9.25 C 22.125 -8.84375 21.328125 -8.367188 20.578125 -7.828125 C 19.828125 -7.285156 19.171875 -6.71875 18.609375 -6.125 C 17.378906 -4.851562 16.765625 -3.671875 16.765625 -2.578125 C 16.765625 -1.273438 17.859375 -0.625 20.046875 -0.625 C 21.578125 -0.625 23.191406 -1.195312 24.890625 -2.34375 C 27.597656 -4.164062 29.445312 -6.703125 30.4375 -9.953125 C 30.75 -11.035156 30.90625 -12.035156 30.90625 -12.953125 C 30.90625 -13.867188 30.785156 -14.519531 30.546875 -14.90625 C 28.910156 -14.34375 27.53125 -14.0625 26.40625 -14.0625 C 25.28125 -14.0625 24.53125 -14.179688 24.15625 -14.421875 C 23.78125 -14.660156 23.59375 -14.890625 23.59375 -15.109375 C 23.59375 -15.335938 23.695312 -15.539062 23.90625 -15.71875 C 24.125 -15.90625 24.414062 -16.070312 24.78125 -16.21875 Z M 29.6875 -15.71875 C 29.195312 -16.007812 28.617188 -16.15625 27.953125 -16.15625 C 27.296875 -16.15625 26.800781 -16.128906 26.46875 -16.078125 C 26.144531 -16.023438 25.851562 -15.960938 25.59375 -15.890625 C 25.070312 -15.742188 24.8125 -15.582031 24.8125 -15.40625 C 24.8125 -15.019531 25.273438 -14.828125 26.203125 -14.828125 C 27.128906 -14.828125 28.289062 -15.125 29.6875 -15.71875 Z M 29.6875 -15.71875 "/></g></g></g><g fill="#000000" fill-opacity="0.4"><g transform="translate(244.110659, 176.582273)"><g><path d="M 10.765625 -3.859375 C 10.171875 -3.859375 9.738281 -4.09375 9.46875 -4.5625 C 7.570312 -2.414062 5.523438 -0.988281 3.328125 -0.28125 C 2.585938 -0.0625 1.867188 0.046875 1.171875 0.046875 C 0.484375 0.046875 -0.101562 -0.03125 -0.59375 -0.1875 C -1.09375 -0.351562 -1.5 -0.578125 -1.8125 -0.859375 C -3.101562 -1.972656 -3.234375 -3.894531 -2.203125 -6.625 C -1.804688 -7.695312 -1.289062 -8.691406 -0.65625 -9.609375 C -0.03125 -10.535156 0.675781 -11.394531 1.46875 -12.1875 C 2.257812 -12.976562 3.109375 -13.6875 4.015625 -14.3125 C 6.078125 -15.695312 8.085938 -16.390625 10.046875 -16.390625 C 10.890625 -16.390625 11.617188 -16.171875 12.234375 -15.734375 C 12.847656 -15.296875 13.175781 -14.664062 13.21875 -13.84375 C 13.269531 -13.019531 13.222656 -12.25 13.078125 -11.53125 C 12.941406 -10.8125 12.726562 -10.09375 12.4375 -9.375 C 11.863281 -7.90625 11.050781 -6.519531 10 -5.21875 C 10.113281 -4.75 10.421875 -4.515625 10.921875 -4.515625 C 11.421875 -4.515625 11.898438 -4.628906 12.359375 -4.859375 C 12.816406 -5.097656 13.269531 -5.390625 13.71875 -5.734375 C 14.175781 -6.078125 14.625 -6.457031 15.0625 -6.875 C 15.5 -7.300781 15.898438 -7.707031 16.265625 -8.09375 L 17.171875 -9.09375 C 17.429688 -9.394531 17.617188 -9.601562 17.734375 -9.71875 L 18.25 -9.3125 C 18.039062 -9.113281 17.773438 -8.835938 17.453125 -8.484375 C 17.140625 -8.140625 16.785156 -7.769531 16.390625 -7.375 C 16.390625 -7.375 15.96875 -6.957031 15.125 -6.125 C 13.476562 -4.613281 12.023438 -3.859375 10.765625 -3.859375 Z M 0.84375 -0.859375 C 1.09375 -0.734375 1.453125 -0.671875 1.921875 -0.671875 C 2.953125 -0.671875 4.28125 -1.253906 5.90625 -2.421875 C 7.15625 -3.304688 8.265625 -4.332031 9.234375 -5.5 L 9.234375 -5.59375 C 9.234375 -6.945312 9.742188 -7.96875 10.765625 -8.65625 C 11.035156 -8.851562 11.289062 -8.988281 11.53125 -9.0625 C 12.300781 -10.695312 12.660156 -12.03125 12.609375 -13.0625 C 12.515625 -14.707031 11.910156 -15.53125 10.796875 -15.53125 C 8.910156 -15.53125 6.269531 -13.40625 2.875 -9.15625 C 0.6875 -6.414062 -0.34375 -4.28125 -0.21875 -2.75 C -0.21875 -1.875 0.132812 -1.242188 0.84375 -0.859375 Z M 0.84375 -0.859375 "/></g></g></g><g fill="#000000" fill-opacity="0.4"><g transform="translate(261.670781, 176.582273)"><g><path d="M -2.578125 0.046875 C -3.941406 0.046875 -4.625 -0.375 -4.625 -1.21875 C -4.625 -1.488281 -4.476562 -1.742188 -4.1875 -1.984375 C -3.894531 -2.222656 -3.597656 -2.34375 -3.296875 -2.34375 C -2.890625 -2.34375 -2.546875 -2.25 -2.265625 -2.0625 C -1.835938 -1.738281 -1.363281 -1.578125 -0.84375 -1.578125 C -0.332031 -1.578125 0.335938 -1.785156 1.171875 -2.203125 C 2.003906 -2.628906 2.84375 -3.234375 3.6875 -4.015625 C 5.394531 -5.597656 6.957031 -7.726562 8.375 -10.40625 C 9.445312 -11.957031 9.984375 -13.21875 9.984375 -14.1875 C 9.984375 -15.15625 9.609375 -15.640625 8.859375 -15.640625 C 7.929688 -15.640625 7.066406 -15.351562 6.265625 -14.78125 C 4.847656 -13.726562 2.984375 -11.90625 0.671875 -9.3125 C 0.546875 -9.28125 0.421875 -9.316406 0.296875 -9.421875 C 0.179688 -9.535156 0.140625 -9.632812 0.171875 -9.71875 C 2.722656 -12.550781 4.46875 -14.296875 5.40625 -14.953125 C 6.34375 -15.609375 7.066406 -16.007812 7.578125 -16.15625 C 8.085938 -16.3125 8.695312 -16.390625 9.40625 -16.390625 C 10.125 -16.390625 10.742188 -16.101562 11.265625 -15.53125 C 11.796875 -14.957031 12.0625 -14.269531 12.0625 -13.46875 C 12.0625 -12.675781 11.914062 -11.789062 11.625 -10.8125 C 13.445312 -13.28125 15.46875 -14.988281 17.6875 -15.9375 C 18.414062 -16.238281 19.054688 -16.390625 19.609375 -16.390625 C 20.171875 -16.390625 20.59375 -16.332031 20.875 -16.21875 C 21.164062 -16.101562 21.398438 -15.960938 21.578125 -15.796875 C 21.898438 -15.492188 22.0625 -15.101562 22.0625 -14.625 C 22.0625 -14.15625 21.910156 -13.804688 21.609375 -13.578125 C 21.304688 -13.347656 20.941406 -13.234375 20.515625 -13.234375 C 20.085938 -13.234375 19.726562 -13.40625 19.4375 -13.75 C 19.144531 -14.101562 18.984375 -14.582031 18.953125 -15.1875 C 18.867188 -15.207031 18.785156 -15.21875 18.703125 -15.21875 L 18.546875 -15.21875 C 17.535156 -15.21875 16.234375 -14.5 14.640625 -13.0625 C 13.066406 -11.625 11.640625 -9.804688 10.359375 -7.609375 L 9.546875 -6.078125 C 8.742188 -4.335938 8.34375 -2.96875 8.34375 -1.96875 C 8.34375 -1.070312 8.8125 -0.625 9.75 -0.625 C 10.6875 -0.625 11.597656 -0.84375 12.484375 -1.28125 C 13.367188 -1.71875 14.242188 -2.265625 15.109375 -2.921875 C 15.972656 -3.578125 16.800781 -4.289062 17.59375 -5.0625 C 18.382812 -5.832031 19.09375 -6.550781 19.71875 -7.21875 C 20.65625 -8.238281 21.363281 -9.078125 21.84375 -9.734375 L 22.34375 -9.3125 C 22.28125 -9.25 22.046875 -8.976562 21.640625 -8.5 C 21.234375 -8.019531 20.703125 -7.429688 20.046875 -6.734375 C 19.390625 -6.035156 18.644531 -5.289062 17.8125 -4.5 C 16.976562 -3.71875 16.097656 -2.984375 15.171875 -2.296875 C 13.035156 -0.734375 11.1875 0.046875 9.625 0.046875 C 8.0625 0.046875 7.003906 -0.597656 6.453125 -1.890625 C 6.265625 -2.347656 6.171875 -2.90625 6.171875 -3.5625 C 6.171875 -4.226562 6.363281 -5.175781 6.75 -6.40625 C 4.53125 -3.34375 2.054688 -1.316406 -0.671875 -0.328125 C -1.398438 -0.078125 -2.035156 0.046875 -2.578125 0.046875 Z M -2.578125 0.046875 "/></g></g></g><g fill="#000000" fill-opacity="0.4"><g transform="translate(283.321903, 176.582273)"><g><path d="M -2.578125 0.046875 C -3.941406 0.046875 -4.625 -0.375 -4.625 -1.21875 C -4.625 -1.488281 -4.476562 -1.742188 -4.1875 -1.984375 C -3.894531 -2.222656 -3.597656 -2.34375 -3.296875 -2.34375 C -2.890625 -2.34375 -2.546875 -2.25 -2.265625 -2.0625 C -1.835938 -1.738281 -1.363281 -1.578125 -0.84375 -1.578125 C -0.332031 -1.578125 0.335938 -1.785156 1.171875 -2.203125 C 2.003906 -2.628906 2.84375 -3.234375 3.6875 -4.015625 C 5.394531 -5.597656 6.957031 -7.726562 8.375 -10.40625 C 9.445312 -11.957031 9.984375 -13.21875 9.984375 -14.1875 C 9.984375 -15.15625 9.609375 -15.640625 8.859375 -15.640625 C 7.929688 -15.640625 7.066406 -15.351562 6.265625 -14.78125 C 4.847656 -13.726562 2.984375 -11.90625 0.671875 -9.3125 C 0.546875 -9.28125 0.421875 -9.316406 0.296875 -9.421875 C 0.179688 -9.535156 0.140625 -9.632812 0.171875 -9.71875 C 2.722656 -12.550781 4.46875 -14.296875 5.40625 -14.953125 C 6.34375 -15.609375 7.066406 -16.007812 7.578125 -16.15625 C 8.085938 -16.3125 8.695312 -16.390625 9.40625 -16.390625 C 10.125 -16.390625 10.742188 -16.101562 11.265625 -15.53125 C 11.796875 -14.957031 12.0625 -14.269531 12.0625 -13.46875 C 12.0625 -12.675781 11.914062 -11.789062 11.625 -10.8125 C 13.445312 -13.28125 15.46875 -14.988281 17.6875 -15.9375 C 18.414062 -16.238281 19.054688 -16.390625 19.609375 -16.390625 C 20.171875 -16.390625 20.59375 -16.332031 20.875 -16.21875 C 21.164062 -16.101562 21.398438 -15.960938 21.578125 -15.796875 C 21.898438 -15.492188 22.0625 -15.101562 22.0625 -14.625 C 22.0625 -14.15625 21.910156 -13.804688 21.609375 -13.578125 C 21.304688 -13.347656 20.941406 -13.234375 20.515625 -13.234375 C 20.085938 -13.234375 19.726562 -13.40625 19.4375 -13.75 C 19.144531 -14.101562 18.984375 -14.582031 18.953125 -15.1875 C 18.867188 -15.207031 18.785156 -15.21875 18.703125 -15.21875 L 18.546875 -15.21875 C 17.535156 -15.21875 16.234375 -14.5 14.640625 -13.0625 C 13.066406 -11.625 11.640625 -9.804688 10.359375 -7.609375 L 9.546875 -6.078125 C 8.742188 -4.335938 8.34375 -2.96875 8.34375 -1.96875 C 8.34375 -1.070312 8.8125 -0.625 9.75 -0.625 C 10.6875 -0.625 11.597656 -0.84375 12.484375 -1.28125 C 13.367188 -1.71875 14.242188 -2.265625 15.109375 -2.921875 C 15.972656 -3.578125 16.800781 -4.289062 17.59375 -5.0625 C 18.382812 -5.832031 19.09375 -6.550781 19.71875 -7.21875 C 20.65625 -8.238281 21.363281 -9.078125 21.84375 -9.734375 L 22.34375 -9.3125 C 22.28125 -9.25 22.046875 -8.976562 21.640625 -8.5 C 21.234375 -8.019531 20.703125 -7.429688 20.046875 -6.734375 C 19.390625 -6.035156 18.644531 -5.289062 17.8125 -4.5 C 16.976562 -3.71875 16.097656 -2.984375 15.171875 -2.296875 C 13.035156 -0.734375 11.1875 0.046875 9.625 0.046875 C 8.0625 0.046875 7.003906 -0.597656 6.453125 -1.890625 C 6.265625 -2.347656 6.171875 -2.90625 6.171875 -3.5625 C 6.171875 -4.226562 6.363281 -5.175781 6.75 -6.40625 C 4.53125 -3.34375 2.054688 -1.316406 -0.671875 -0.328125 C -1.398438 -0.078125 -2.035156 0.046875 -2.578125 0.046875 Z M -2.578125 0.046875 "/></g></g></g><g fill="#000000" fill-opacity="1"><g transform="translate(59.348582, 176.105832)"><g><path d="M 24.78125 -16.21875 C 25.15625 -16.363281 25.578125 -16.476562 26.046875 -16.5625 C 26.515625 -16.65625 27.144531 -16.703125 27.9375 -16.703125 C 28.738281 -16.703125 29.570312 -16.484375 30.4375 -16.046875 C 34.050781 -17.816406 36.519531 -20.394531 37.84375 -23.78125 C 38.320312 -24.976562 38.5625 -26.191406 38.5625 -27.421875 C 38.5625 -28.648438 38.226562 -29.691406 37.5625 -30.546875 C 37.195312 -30.347656 36.832031 -30.117188 36.46875 -29.859375 L 35.3125 -29.046875 C 33.238281 -27.484375 31.484375 -25.9375 30.046875 -24.40625 C 27.628906 -21.832031 25.054688 -18.71875 22.328125 -15.0625 C 19.609375 -11.40625 16.84375 -8.367188 14.03125 -5.953125 C 11.21875 -3.546875 8.535156 -1.816406 5.984375 -0.765625 C 4.597656 -0.222656 2.84375 0.046875 0.71875 0.046875 C -0.664062 0.046875 -1.863281 -0.285156 -2.875 -0.953125 C -3.863281 -1.628906 -4.359375 -2.441406 -4.359375 -3.390625 C -4.359375 -4.398438 -3.863281 -5.039062 -2.875 -5.3125 C -2.613281 -5.375 -2.351562 -5.40625 -2.09375 -5.40625 C -1.84375 -5.40625 -1.585938 -5.320312 -1.328125 -5.15625 C -1.066406 -4.988281 -0.9375 -4.722656 -0.9375 -4.359375 C -0.9375 -4.003906 -1.066406 -3.710938 -1.328125 -3.484375 C -1.585938 -3.253906 -1.945312 -3.140625 -2.40625 -3.140625 C -2.863281 -3.140625 -3.203125 -3.21875 -3.421875 -3.375 L -3.421875 -3.234375 C -3.421875 -2.453125 -3.03125 -1.8125 -2.25 -1.3125 C -1.476562 -0.820312 -0.59375 -0.578125 0.40625 -0.578125 C 1.414062 -0.578125 2.234375 -0.648438 2.859375 -0.796875 C 3.484375 -0.953125 4.171875 -1.242188 4.921875 -1.671875 C 5.671875 -2.109375 6.515625 -2.71875 7.453125 -3.5 C 8.390625 -4.28125 9.492188 -5.300781 10.765625 -6.5625 L 15.1875 -11.203125 L 21.109375 -17.65625 C 26.703125 -24.007812 32.007812 -28.515625 37.03125 -31.171875 C 35.195312 -33.003906 32.171875 -33.921875 27.953125 -33.921875 C 23.015625 -33.921875 18.144531 -32.113281 13.34375 -28.5 C 11.03125 -26.738281 9.117188 -24.878906 7.609375 -22.921875 C 6.078125 -20.890625 5.3125 -19.132812 5.3125 -17.65625 C 5.3125 -16.300781 5.984375 -15.429688 7.328125 -15.046875 C 7.703125 -14.929688 8.234375 -14.875 8.921875 -14.875 C 9.609375 -14.875 10.484375 -15.054688 11.546875 -15.421875 C 12.609375 -15.796875 13.675781 -16.316406 14.75 -16.984375 C 15.820312 -17.660156 16.867188 -18.460938 17.890625 -19.390625 C 18.910156 -20.328125 19.835938 -21.359375 20.671875 -22.484375 C 22.503906 -24.929688 23.601562 -27.484375 23.96875 -30.140625 C 24.070312 -30.648438 24.195312 -30.90625 24.34375 -30.90625 C 24.5 -30.90625 24.578125 -30.734375 24.578125 -30.390625 C 24.578125 -27.453125 23.726562 -24.691406 22.03125 -22.109375 C 20.5 -19.773438 18.453125 -17.894531 15.890625 -16.46875 C 13.378906 -15.0625 10.863281 -14.359375 8.34375 -14.359375 C 6.6875 -14.359375 5.546875 -14.976562 4.921875 -16.21875 C 4.703125 -16.632812 4.59375 -17.3125 4.59375 -18.25 C 4.59375 -19.195312 4.898438 -20.332031 5.515625 -21.65625 C 6.140625 -22.988281 7 -24.273438 8.09375 -25.515625 C 9.1875 -26.753906 10.484375 -27.914062 11.984375 -29 C 13.484375 -30.082031 15.101562 -31.03125 16.84375 -31.84375 C 20.59375 -33.582031 24.5 -34.453125 28.5625 -34.453125 C 32.632812 -34.453125 35.84375 -33.5625 38.1875 -31.78125 C 40.582031 -32.925781 42.578125 -33.5 44.171875 -33.5 C 44.691406 -33.5 44.953125 -33.414062 44.953125 -33.25 C 44.953125 -33.175781 44.804688 -33.117188 44.515625 -33.078125 C 44.234375 -33.035156 43.820312 -32.953125 43.28125 -32.828125 C 41.695312 -32.492188 40.207031 -31.957031 38.8125 -31.21875 C 40.3125 -29.78125 41.0625 -28.007812 41.0625 -25.90625 C 41.0625 -23.863281 40.101562 -21.816406 38.1875 -19.765625 C 36.414062 -17.867188 34.210938 -16.382812 31.578125 -15.3125 C 32.859375 -14.175781 33.5 -12.570312 33.5 -10.5 C 33.5 -8.726562 32.835938 -7.015625 31.515625 -5.359375 C 29.535156 -2.867188 26.816406 -1.203125 23.359375 -0.359375 C 22.234375 -0.0859375 21.191406 0.046875 20.234375 0.046875 C 19.285156 0.046875 18.554688 -0.0351562 18.046875 -0.203125 C 17.535156 -0.367188 17.125 -0.582031 16.8125 -0.84375 C 16.257812 -1.300781 15.984375 -1.84375 15.984375 -2.46875 C 15.984375 -3.101562 16.148438 -3.742188 16.484375 -4.390625 C 16.816406 -5.035156 17.273438 -5.675781 17.859375 -6.3125 C 18.441406 -6.957031 19.128906 -7.570312 19.921875 -8.15625 C 20.722656 -8.75 21.578125 -9.269531 22.484375 -9.71875 C 24.515625 -10.71875 26.476562 -11.21875 28.375 -11.21875 C 28.707031 -11.21875 28.875 -11.113281 28.875 -10.90625 C 28.875 -10.695312 28.539062 -10.59375 27.875 -10.59375 C 27.21875 -10.59375 26.445312 -10.472656 25.5625 -10.234375 C 24.675781 -9.992188 23.8125 -9.664062 22.96875 -9.25 C 22.125 -8.84375 21.328125 -8.367188 20.578125 -7.828125 C 19.828125 -7.285156 19.171875 -6.71875 18.609375 -6.125 C 17.378906 -4.851562 16.765625 -3.671875 16.765625 -2.578125 C 16.765625 -1.273438 17.859375 -0.625 20.046875 -0.625 C 21.578125 -0.625 23.191406 -1.195312 24.890625 -2.34375 C 27.597656 -4.164062 29.445312 -6.703125 30.4375 -9.953125 C 30.75 -11.035156 30.90625 -12.035156 30.90625 -12.953125 C 30.90625 -13.867188 30.785156 -14.519531 30.546875 -14.90625 C 28.910156 -14.34375 27.53125 -14.0625 26.40625 -14.0625 C 25.28125 -14.0625 24.53125 -14.179688 24.15625 -14.421875 C 23.78125 -14.660156 23.59375 -14.890625 23.59375 -15.109375 C 23.59375 -15.335938 23.695312 -15.539062 23.90625 -15.71875 C 24.125 -15.90625 24.414062 -16.070312 24.78125 -16.21875 Z M 29.6875 -15.71875 C 29.195312 -16.007812 28.617188 -16.15625 27.953125 -16.15625 C 27.296875 -16.15625 26.800781 -16.128906 26.46875 -16.078125 C 26.144531 -16.023438 25.851562 -15.960938 25.59375 -15.890625 C 25.070312 -15.742188 24.8125 -15.582031 24.8125 -15.40625 C 24.8125 -15.019531 25.273438 -14.828125 26.203125 -14.828125 C 27.128906 -14.828125 28.289062 -15.125 29.6875 -15.71875 Z M 29.6875 -15.71875 "/></g></g></g><g fill="#000000" fill-opacity="1"><g transform="translate(97.60286, 176.105832)"><g><path d="M 9.25 -2.0625 C 8.238281 -1.414062 7.144531 -0.882812 5.96875 -0.46875 C 4.800781 -0.0625 3.6875 0.140625 2.625 0.140625 C 1.570312 0.140625 0.769531 0.0351562 0.21875 -0.171875 C -0.320312 -0.390625 -0.769531 -0.691406 -1.125 -1.078125 C -2.625 -2.703125 -2.613281 -5.101562 -1.09375 -8.28125 C -0.445312 -9.6875 0.535156 -10.96875 1.859375 -12.125 C 3.191406 -13.28125 4.359375 -14.144531 5.359375 -14.71875 C 7.304688 -15.832031 9.132812 -16.390625 10.84375 -16.390625 C 12.53125 -16.390625 13.414062 -15.863281 13.5 -14.8125 C 13.601562 -13.101562 11.53125 -11.242188 7.28125 -9.234375 C 5.707031 -8.503906 3.734375 -7.75 1.359375 -6.96875 C 0.421875 -5.4375 -0.046875 -4.1875 -0.046875 -3.21875 C -0.046875 -2.25 0.203125 -1.5625 0.703125 -1.15625 C 1.203125 -0.75 1.9375 -0.546875 2.90625 -0.546875 C 3.875 -0.546875 4.921875 -0.753906 6.046875 -1.171875 C 7.171875 -1.585938 8.222656 -2.113281 9.203125 -2.75 C 10.179688 -3.382812 11.066406 -4.078125 11.859375 -4.828125 C 12.660156 -5.578125 13.367188 -6.296875 13.984375 -6.984375 C 14.597656 -7.671875 15.097656 -8.265625 15.484375 -8.765625 C 15.878906 -9.265625 16.148438 -9.582031 16.296875 -9.71875 L 16.796875 -9.3125 C 16.585938 -9.132812 16.269531 -8.773438 15.84375 -8.234375 C 15.425781 -7.691406 14.894531 -7.070312 14.25 -6.375 C 13.601562 -5.675781 12.859375 -4.941406 12.015625 -4.171875 C 11.179688 -3.410156 10.257812 -2.707031 9.25 -2.0625 Z M 1.921875 -7.796875 C 6.734375 -9.492188 9.832031 -11.175781 11.21875 -12.84375 C 11.6875 -13.40625 11.921875 -13.945312 11.921875 -14.46875 C 11.921875 -15.363281 11.503906 -15.8125 10.671875 -15.8125 C 9.203125 -15.8125 7.367188 -14.53125 5.171875 -11.96875 C 3.640625 -10.175781 2.554688 -8.785156 1.921875 -7.796875 Z M 1.921875 -7.796875 "/></g></g></g><g fill="#000000" fill-opacity="1"><g transform="translate(113.727549, 176.105832)"><g><path d="M 9.546875 0.046875 C 7.953125 0.046875 7.15625 -0.445312 7.15625 -1.4375 C 7.15625 -2.25 7.617188 -3.269531 8.546875 -4.5 L 10.046875 -6.40625 L 9.8125 -6.515625 C 7.132812 -3.210938 4.601562 -1.132812 2.21875 -0.28125 C 1.570312 -0.0625 1.007812 0.046875 0.53125 0.046875 C -1.4375 0.046875 -2.421875 -1 -2.421875 -3.09375 C -2.421875 -5.539062 -1.4375 -7.882812 0.53125 -10.125 C 3.425781 -13.5 6.34375 -15.5 9.28125 -16.125 C 10.15625 -16.300781 10.90625 -16.390625 11.53125 -16.390625 C 12.15625 -16.390625 12.644531 -16.34375 13 -16.25 C 13.363281 -16.164062 13.679688 -16.046875 13.953125 -15.890625 C 14.523438 -15.523438 14.8125 -15.070312 14.8125 -14.53125 C 14.8125 -14 14.710938 -13.492188 14.515625 -13.015625 L 16.875 -15.90625 C 17.300781 -15.78125 17.695312 -15.71875 18.0625 -15.71875 C 19 -15.71875 19.675781 -15.75 20.09375 -15.8125 L 12.03125 -6.09375 C 10.113281 -3.863281 9.15625 -2.296875 9.15625 -1.390625 C 9.15625 -0.878906 9.457031 -0.625 10.0625 -0.625 C 10.675781 -0.625 11.375 -0.804688 12.15625 -1.171875 C 12.945312 -1.535156 13.734375 -2.003906 14.515625 -2.578125 C 15.304688 -3.160156 16.070312 -3.800781 16.8125 -4.5 C 17.550781 -5.195312 18.234375 -5.878906 18.859375 -6.546875 C 19.492188 -7.222656 20.050781 -7.847656 20.53125 -8.421875 L 21.671875 -9.71875 L 22.171875 -9.3125 L 20.953125 -7.921875 C 16.359375 -2.609375 12.554688 0.046875 9.546875 0.046875 Z M 2.921875 -8.5625 C 0.671875 -5.832031 -0.453125 -3.597656 -0.453125 -1.859375 C -0.453125 -1.066406 -0.09375 -0.671875 0.625 -0.671875 C 2.945312 -0.671875 6.300781 -3.242188 10.6875 -8.390625 L 12.703125 -10.8125 C 13.660156 -12.257812 14.140625 -13.3125 14.140625 -13.96875 C 14.140625 -15.082031 13.582031 -15.640625 12.46875 -15.640625 C 10.945312 -15.640625 8.769531 -14.347656 5.9375 -11.765625 C 4.957031 -10.878906 3.953125 -9.8125 2.921875 -8.5625 Z M 2.921875 -8.5625 "/></g></g></g><g fill="#000000" fill-opacity="1"><g transform="translate(135.235117, 176.105832)"><g><path d="M -1.9375 -1.40625 C -1.9375 -0.832031 -1.554688 -0.546875 -0.796875 -0.546875 C 0.273438 -0.546875 1.425781 -0.953125 2.65625 -1.765625 C 5.300781 -3.535156 8.0625 -6.1875 10.9375 -9.71875 C 10.9375 -9.71875 12.742188 -11.894531 16.359375 -16.25 C 17.128906 -16.15625 17.820312 -16.109375 18.4375 -16.109375 C 19.0625 -16.109375 19.582031 -16.128906 20 -16.171875 L 17.65625 -13.46875 L 9.1875 -3.15625 C 8.625 -2.46875 8.34375 -1.910156 8.34375 -1.484375 C 8.34375 -0.910156 8.722656 -0.625 9.484375 -0.625 C 10.253906 -0.625 11.050781 -0.828125 11.875 -1.234375 C 12.695312 -1.640625 13.519531 -2.148438 14.34375 -2.765625 C 15.164062 -3.390625 15.96875 -4.070312 16.75 -4.8125 C 17.53125 -5.5625 18.238281 -6.269531 18.875 -6.9375 L 21.390625 -9.71875 L 21.875 -9.3125 L 20.9375 -8.25 C 20.46875 -7.726562 19.898438 -7.125 19.234375 -6.4375 L 17.015625 -4.265625 C 13.960938 -1.390625 11.429688 0.046875 9.421875 0.046875 C 8.773438 0.046875 8.238281 -0.128906 7.8125 -0.484375 C 7.382812 -0.847656 7.15625 -1.332031 7.125 -1.9375 C 7.09375 -3.101562 7.5 -4.421875 8.34375 -5.890625 C 4.675781 -1.929688 1.566406 0.046875 -0.984375 0.046875 C -2.421875 0.046875 -3.335938 -0.460938 -3.734375 -1.484375 C -3.847656 -1.773438 -3.910156 -2.140625 -3.921875 -2.578125 C -3.941406 -3.023438 -3.832031 -3.5625 -3.59375 -4.1875 C -3.363281 -4.8125 -3.015625 -5.484375 -2.546875 -6.203125 C -2.085938 -6.929688 -1.523438 -7.71875 -0.859375 -8.5625 L 3.453125 -13.78125 C 4.117188 -14.613281 4.828125 -15.4375 5.578125 -16.25 C 6.203125 -16.15625 6.703125 -16.109375 7.078125 -16.109375 L 7.890625 -16.109375 C 8.578125 -16.109375 9.019531 -16.128906 9.21875 -16.171875 C 7.34375 -14.128906 6.03125 -12.65625 5.28125 -11.75 L 0.53125 -6.03125 C -1.144531 -4.082031 -1.96875 -2.539062 -1.9375 -1.40625 Z M -1.9375 -1.40625 "/></g></g></g><g fill="#000000" fill-opacity="1"><g transform="translate(156.455597, 176.105832)"><g><path d="M -2.390625 -1.390625 C -2.390625 -0.910156 -2.003906 -0.660156 -1.234375 -0.640625 C -0.472656 -0.628906 0.289062 -0.796875 1.0625 -1.140625 C 1.832031 -1.492188 2.597656 -1.941406 3.359375 -2.484375 C 4.128906 -3.023438 4.875 -3.632812 5.59375 -4.3125 C 6.3125 -4.988281 6.984375 -5.660156 7.609375 -6.328125 C 8.234375 -7.003906 8.789062 -7.640625 9.28125 -8.234375 L 10.53125 -9.71875 L 11.046875 -9.3125 L 9.8125 -7.875 C 5.363281 -2.59375 1.625 0.046875 -1.40625 0.046875 C -2.289062 0.046875 -2.953125 -0.125 -3.390625 -0.46875 C -3.828125 -0.820312 -4.046875 -1.207031 -4.046875 -1.625 C -4.046875 -2.039062 -4.023438 -2.382812 -3.984375 -2.65625 C -3.941406 -2.925781 -3.859375 -3.222656 -3.734375 -3.546875 C -3.609375 -3.878906 -3.421875 -4.269531 -3.171875 -4.71875 C -2.921875 -5.164062 -2.585938 -5.707031 -2.171875 -6.34375 L 1.5625 -11.71875 L 7.734375 -20.40625 L 5.84375 -20.40625 C 5.363281 -20.40625 5.125 -20.519531 5.125 -20.75 C 5.125 -20.988281 5.425781 -21.109375 6.03125 -21.109375 L 8.203125 -21.109375 L 12.640625 -27.328125 C 13.753906 -27.148438 14.859375 -27.148438 15.953125 -27.328125 L 11.34375 -21.109375 L 17.515625 -21.109375 C 17.960938 -21.109375 18.1875 -20.988281 18.1875 -20.75 C 18.1875 -20.519531 17.984375 -20.40625 17.578125 -20.40625 L 10.8125 -20.40625 L 0.90625 -6.9375 C -0.800781 -4.53125 -1.773438 -3.046875 -2.015625 -2.484375 C -2.265625 -1.929688 -2.390625 -1.566406 -2.390625 -1.390625 Z M -2.390625 -1.390625 "/></g></g></g><g fill="#000000" fill-opacity="1"><g transform="translate(166.81464, 176.105832)"><g><path d="M -2.171875 -1.671875 C -2.171875 -0.941406 -1.703125 -0.578125 -0.765625 -0.578125 C 0.171875 -0.578125 1.207031 -0.816406 2.34375 -1.296875 C 3.488281 -1.785156 4.613281 -2.421875 5.71875 -3.203125 C 7.84375 -4.691406 9.796875 -6.539062 11.578125 -8.75 C 14.390625 -11.957031 16.070312 -13.898438 16.625 -14.578125 C 16.625 -14.578125 17.054688 -15.109375 17.921875 -16.171875 C 18.546875 -16.054688 19 -16 19.28125 -16 C 20.09375 -16 20.707031 -16.035156 21.125 -16.109375 L 12.796875 -5.84375 L 8.5625 -0.171875 L 4.921875 4.5625 C 9.046875 2.59375 12.207031 0.625 14.40625 -1.34375 C 15.84375 -2.613281 17.191406 -4.015625 18.453125 -5.546875 L 21.890625 -9.71875 L 22.390625 -9.3125 L 19.375 -5.75 C 17.59375 -3.632812 16.101562 -2.054688 14.90625 -1.015625 C 13.707031 0.015625 12.613281 0.863281 11.625 1.53125 C 9.75 2.769531 7.238281 4.132812 4.09375 5.625 C 1.125 9.34375 -1.109375 11.925781 -2.609375 13.375 C -4.117188 14.820312 -5.3125 15.851562 -6.1875 16.46875 C -7.070312 17.082031 -7.925781 17.566406 -8.75 17.921875 C -10.15625 18.523438 -11.820312 18.828125 -13.75 18.828125 C -14.726562 18.828125 -15.378906 18.484375 -15.703125 17.796875 C -15.796875 17.609375 -15.84375 17.304688 -15.84375 16.890625 C -15.84375 16.472656 -15.570312 15.894531 -15.03125 15.15625 C -14.5 14.414062 -13.585938 13.59375 -12.296875 12.6875 C -9.710938 10.863281 -5.25 8.613281 1.09375 5.9375 L 10.84375 -6.40625 L 10.578125 -6.515625 C 9.054688 -4.878906 7.507812 -3.582031 5.9375 -2.625 C 2.976562 -0.84375 0.613281 0.046875 -1.15625 0.046875 C -2.039062 0.046875 -2.707031 -0.128906 -3.15625 -0.484375 C -3.601562 -0.847656 -3.828125 -1.285156 -3.828125 -1.796875 C -3.828125 -2.316406 -3.78125 -2.789062 -3.6875 -3.21875 C -3.59375 -3.644531 -3.398438 -4.148438 -3.109375 -4.734375 C -2.515625 -5.867188 -1.390625 -7.597656 0.265625 -9.921875 C 0.992188 -10.835938 1.878906 -11.820312 2.921875 -12.875 L 6.25 -16.25 L 7.375 -16.125 C 7.625 -16.113281 8.015625 -16.109375 8.546875 -16.109375 C 9.085938 -16.109375 9.570312 -16.128906 10 -16.171875 C 8.582031 -14.898438 7.519531 -13.863281 6.8125 -13.0625 L 5.125 -11.15625 C 1.59375 -7.238281 -0.394531 -4.957031 -0.84375 -4.3125 C -1.726562 -3.03125 -2.171875 -2.148438 -2.171875 -1.671875 Z M 0.265625 6.96875 C -7.753906 10.394531 -12.582031 13.117188 -14.21875 15.140625 C -14.789062 15.859375 -15.078125 16.554688 -15.078125 17.234375 C -15.078125 17.398438 -14.96875 17.597656 -14.75 17.828125 C -14.53125 18.066406 -14.070312 18.1875 -13.375 18.1875 C -12.675781 18.1875 -11.898438 18.03125 -11.046875 17.71875 C -10.191406 17.40625 -9.238281 16.84375 -8.1875 16.03125 C -6.25 14.5 -3.429688 11.476562 0.265625 6.96875 Z M 0.265625 6.96875 "/></g></g></g><g fill="#000000" fill-opacity="1"><g transform="translate(188.561445, 176.105832)"><g/></g></g><g fill="#000000" fill-opacity="1"><g transform="translate(205.379933, 176.105832)"><g><path d="M 24.78125 -16.21875 C 25.15625 -16.363281 25.578125 -16.476562 26.046875 -16.5625 C 26.515625 -16.65625 27.144531 -16.703125 27.9375 -16.703125 C 28.738281 -16.703125 29.570312 -16.484375 30.4375 -16.046875 C 34.050781 -17.816406 36.519531 -20.394531 37.84375 -23.78125 C 38.320312 -24.976562 38.5625 -26.191406 38.5625 -27.421875 C 38.5625 -28.648438 38.226562 -29.691406 37.5625 -30.546875 C 37.195312 -30.347656 36.832031 -30.117188 36.46875 -29.859375 L 35.3125 -29.046875 C 33.238281 -27.484375 31.484375 -25.9375 30.046875 -24.40625 C 27.628906 -21.832031 25.054688 -18.71875 22.328125 -15.0625 C 19.609375 -11.40625 16.84375 -8.367188 14.03125 -5.953125 C 11.21875 -3.546875 8.535156 -1.816406 5.984375 -0.765625 C 4.597656 -0.222656 2.84375 0.046875 0.71875 0.046875 C -0.664062 0.046875 -1.863281 -0.285156 -2.875 -0.953125 C -3.863281 -1.628906 -4.359375 -2.441406 -4.359375 -3.390625 C -4.359375 -4.398438 -3.863281 -5.039062 -2.875 -5.3125 C -2.613281 -5.375 -2.351562 -5.40625 -2.09375 -5.40625 C -1.84375 -5.40625 -1.585938 -5.320312 -1.328125 -5.15625 C -1.066406 -4.988281 -0.9375 -4.722656 -0.9375 -4.359375 C -0.9375 -4.003906 -1.066406 -3.710938 -1.328125 -3.484375 C -1.585938 -3.253906 -1.945312 -3.140625 -2.40625 -3.140625 C -2.863281 -3.140625 -3.203125 -3.21875 -3.421875 -3.375 L -3.421875 -3.234375 C -3.421875 -2.453125 -3.03125 -1.8125 -2.25 -1.3125 C -1.476562 -0.820312 -0.59375 -0.578125 0.40625 -0.578125 C 1.414062 -0.578125 2.234375 -0.648438 2.859375 -0.796875 C 3.484375 -0.953125 4.171875 -1.242188 4.921875 -1.671875 C 5.671875 -2.109375 6.515625 -2.71875 7.453125 -3.5 C 8.390625 -4.28125 9.492188 -5.300781 10.765625 -6.5625 L 15.1875 -11.203125 L 21.109375 -17.65625 C 26.703125 -24.007812 32.007812 -28.515625 37.03125 -31.171875 C 35.195312 -33.003906 32.171875 -33.921875 27.953125 -33.921875 C 23.015625 -33.921875 18.144531 -32.113281 13.34375 -28.5 C 11.03125 -26.738281 9.117188 -24.878906 7.609375 -22.921875 C 6.078125 -20.890625 5.3125 -19.132812 5.3125 -17.65625 C 5.3125 -16.300781 5.984375 -15.429688 7.328125 -15.046875 C 7.703125 -14.929688 8.234375 -14.875 8.921875 -14.875 C 9.609375 -14.875 10.484375 -15.054688 11.546875 -15.421875 C 12.609375 -15.796875 13.675781 -16.316406 14.75 -16.984375 C 15.820312 -17.660156 16.867188 -18.460938 17.890625 -19.390625 C 18.910156 -20.328125 19.835938 -21.359375 20.671875 -22.484375 C 22.503906 -24.929688 23.601562 -27.484375 23.96875 -30.140625 C 24.070312 -30.648438 24.195312 -30.90625 24.34375 -30.90625 C 24.5 -30.90625 24.578125 -30.734375 24.578125 -30.390625 C 24.578125 -27.453125 23.726562 -24.691406 22.03125 -22.109375 C 20.5 -19.773438 18.453125 -17.894531 15.890625 -16.46875 C 13.378906 -15.0625 10.863281 -14.359375 8.34375 -14.359375 C 6.6875 -14.359375 5.546875 -14.976562 4.921875 -16.21875 C 4.703125 -16.632812 4.59375 -17.3125 4.59375 -18.25 C 4.59375 -19.195312 4.898438 -20.332031 5.515625 -21.65625 C 6.140625 -22.988281 7 -24.273438 8.09375 -25.515625 C 9.1875 -26.753906 10.484375 -27.914062 11.984375 -29 C 13.484375 -30.082031 15.101562 -31.03125 16.84375 -31.84375 C 20.59375 -33.582031 24.5 -34.453125 28.5625 -34.453125 C 32.632812 -34.453125 35.84375 -33.5625 38.1875 -31.78125 C 40.582031 -32.925781 42.578125 -33.5 44.171875 -33.5 C 44.691406 -33.5 44.953125 -33.414062 44.953125 -33.25 C 44.953125 -33.175781 44.804688 -33.117188 44.515625 -33.078125 C 44.234375 -33.035156 43.820312 -32.953125 43.28125 -32.828125 C 41.695312 -32.492188 40.207031 -31.957031 38.8125 -31.21875 C 40.3125 -29.78125 41.0625 -28.007812 41.0625 -25.90625 C 41.0625 -23.863281 40.101562 -21.816406 38.1875 -19.765625 C 36.414062 -17.867188 34.210938 -16.382812 31.578125 -15.3125 C 32.859375 -14.175781 33.5 -12.570312 33.5 -10.5 C 33.5 -8.726562 32.835938 -7.015625 31.515625 -5.359375 C 29.535156 -2.867188 26.816406 -1.203125 23.359375 -0.359375 C 22.234375 -0.0859375 21.191406 0.046875 20.234375 0.046875 C 19.285156 0.046875 18.554688 -0.0351562 18.046875 -0.203125 C 17.535156 -0.367188 17.125 -0.582031 16.8125 -0.84375 C 16.257812 -1.300781 15.984375 -1.84375 15.984375 -2.46875 C 15.984375 -3.101562 16.148438 -3.742188 16.484375 -4.390625 C 16.816406 -5.035156 17.273438 -5.675781 17.859375 -6.3125 C 18.441406 -6.957031 19.128906 -7.570312 19.921875 -8.15625 C 20.722656 -8.75 21.578125 -9.269531 22.484375 -9.71875 C 24.515625 -10.71875 26.476562 -11.21875 28.375 -11.21875 C 28.707031 -11.21875 28.875 -11.113281 28.875 -10.90625 C 28.875 -10.695312 28.539062 -10.59375 27.875 -10.59375 C 27.21875 -10.59375 26.445312 -10.472656 25.5625 -10.234375 C 24.675781 -9.992188 23.8125 -9.664062 22.96875 -9.25 C 22.125 -8.84375 21.328125 -8.367188 20.578125 -7.828125 C 19.828125 -7.285156 19.171875 -6.71875 18.609375 -6.125 C 17.378906 -4.851562 16.765625 -3.671875 16.765625 -2.578125 C 16.765625 -1.273438 17.859375 -0.625 20.046875 -0.625 C 21.578125 -0.625 23.191406 -1.195312 24.890625 -2.34375 C 27.597656 -4.164062 29.445312 -6.703125 30.4375 -9.953125 C 30.75 -11.035156 30.90625 -12.035156 30.90625 -12.953125 C 30.90625 -13.867188 30.785156 -14.519531 30.546875 -14.90625 C 28.910156 -14.34375 27.53125 -14.0625 26.40625 -14.0625 C 25.28125 -14.0625 24.53125 -14.179688 24.15625 -14.421875 C 23.78125 -14.660156 23.59375 -14.890625 23.59375 -15.109375 C 23.59375 -15.335938 23.695312 -15.539062 23.90625 -15.71875 C 24.125 -15.90625 24.414062 -16.070312 24.78125 -16.21875 Z M 29.6875 -15.71875 C 29.195312 -16.007812 28.617188 -16.15625 27.953125 -16.15625 C 27.296875 -16.15625 26.800781 -16.128906 26.46875 -16.078125 C 26.144531 -16.023438 25.851562 -15.960938 25.59375 -15.890625 C 25.070312 -15.742188 24.8125 -15.582031 24.8125 -15.40625 C 24.8125 -15.019531 25.273438 -14.828125 26.203125 -14.828125 C 27.128906 -14.828125 28.289062 -15.125 29.6875 -15.71875 Z M 29.6875 -15.71875 "/></g></g></g><g fill="#000000" fill-opacity="1"><g transform="translate(243.634211, 176.105832)"><g><path d="M 10.765625 -3.859375 C 10.171875 -3.859375 9.738281 -4.09375 9.46875 -4.5625 C 7.570312 -2.414062 5.523438 -0.988281 3.328125 -0.28125 C 2.585938 -0.0625 1.867188 0.046875 1.171875 0.046875 C 0.484375 0.046875 -0.101562 -0.03125 -0.59375 -0.1875 C -1.09375 -0.351562 -1.5 -0.578125 -1.8125 -0.859375 C -3.101562 -1.972656 -3.234375 -3.894531 -2.203125 -6.625 C -1.804688 -7.695312 -1.289062 -8.691406 -0.65625 -9.609375 C -0.03125 -10.535156 0.675781 -11.394531 1.46875 -12.1875 C 2.257812 -12.976562 3.109375 -13.6875 4.015625 -14.3125 C 6.078125 -15.695312 8.085938 -16.390625 10.046875 -16.390625 C 10.890625 -16.390625 11.617188 -16.171875 12.234375 -15.734375 C 12.847656 -15.296875 13.175781 -14.664062 13.21875 -13.84375 C 13.269531 -13.019531 13.222656 -12.25 13.078125 -11.53125 C 12.941406 -10.8125 12.726562 -10.09375 12.4375 -9.375 C 11.863281 -7.90625 11.050781 -6.519531 10 -5.21875 C 10.113281 -4.75 10.421875 -4.515625 10.921875 -4.515625 C 11.421875 -4.515625 11.898438 -4.628906 12.359375 -4.859375 C 12.816406 -5.097656 13.269531 -5.390625 13.71875 -5.734375 C 14.175781 -6.078125 14.625 -6.457031 15.0625 -6.875 C 15.5 -7.300781 15.898438 -7.707031 16.265625 -8.09375 L 17.171875 -9.09375 C 17.429688 -9.394531 17.617188 -9.601562 17.734375 -9.71875 L 18.25 -9.3125 C 18.039062 -9.113281 17.773438 -8.835938 17.453125 -8.484375 C 17.140625 -8.140625 16.785156 -7.769531 16.390625 -7.375 C 16.390625 -7.375 15.96875 -6.957031 15.125 -6.125 C 13.476562 -4.613281 12.023438 -3.859375 10.765625 -3.859375 Z M 0.84375 -0.859375 C 1.09375 -0.734375 1.453125 -0.671875 1.921875 -0.671875 C 2.953125 -0.671875 4.28125 -1.253906 5.90625 -2.421875 C 7.15625 -3.304688 8.265625 -4.332031 9.234375 -5.5 L 9.234375 -5.59375 C 9.234375 -6.945312 9.742188 -7.96875 10.765625 -8.65625 C 11.035156 -8.851562 11.289062 -8.988281 11.53125 -9.0625 C 12.300781 -10.695312 12.660156 -12.03125 12.609375 -13.0625 C 12.515625 -14.707031 11.910156 -15.53125 10.796875 -15.53125 C 8.910156 -15.53125 6.269531 -13.40625 2.875 -9.15625 C 0.6875 -6.414062 -0.34375 -4.28125 -0.21875 -2.75 C -0.21875 -1.875 0.132812 -1.242188 0.84375 -0.859375 Z M 0.84375 -0.859375 "/></g></g></g><g fill="#000000" fill-opacity="1"><g transform="translate(261.194333, 176.105832)"><g><path d="M -2.578125 0.046875 C -3.941406 0.046875 -4.625 -0.375 -4.625 -1.21875 C -4.625 -1.488281 -4.476562 -1.742188 -4.1875 -1.984375 C -3.894531 -2.222656 -3.597656 -2.34375 -3.296875 -2.34375 C -2.890625 -2.34375 -2.546875 -2.25 -2.265625 -2.0625 C -1.835938 -1.738281 -1.363281 -1.578125 -0.84375 -1.578125 C -0.332031 -1.578125 0.335938 -1.785156 1.171875 -2.203125 C 2.003906 -2.628906 2.84375 -3.234375 3.6875 -4.015625 C 5.394531 -5.597656 6.957031 -7.726562 8.375 -10.40625 C 9.445312 -11.957031 9.984375 -13.21875 9.984375 -14.1875 C 9.984375 -15.15625 9.609375 -15.640625 8.859375 -15.640625 C 7.929688 -15.640625 7.066406 -15.351562 6.265625 -14.78125 C 4.847656 -13.726562 2.984375 -11.90625 0.671875 -9.3125 C 0.546875 -9.28125 0.421875 -9.316406 0.296875 -9.421875 C 0.179688 -9.535156 0.140625 -9.632812 0.171875 -9.71875 C 2.722656 -12.550781 4.46875 -14.296875 5.40625 -14.953125 C 6.34375 -15.609375 7.066406 -16.007812 7.578125 -16.15625 C 8.085938 -16.3125 8.695312 -16.390625 9.40625 -16.390625 C 10.125 -16.390625 10.742188 -16.101562 11.265625 -15.53125 C 11.796875 -14.957031 12.0625 -14.269531 12.0625 -13.46875 C 12.0625 -12.675781 11.914062 -11.789062 11.625 -10.8125 C 13.445312 -13.28125 15.46875 -14.988281 17.6875 -15.9375 C 18.414062 -16.238281 19.054688 -16.390625 19.609375 -16.390625 C 20.171875 -16.390625 20.59375 -16.332031 20.875 -16.21875 C 21.164062 -16.101562 21.398438 -15.960938 21.578125 -15.796875 C 21.898438 -15.492188 22.0625 -15.101562 22.0625 -14.625 C 22.0625 -14.15625 21.910156 -13.804688 21.609375 -13.578125 C 21.304688 -13.347656 20.941406 -13.234375 20.515625 -13.234375 C 20.085938 -13.234375 19.726562 -13.40625 19.4375 -13.75 C 19.144531 -14.101562 18.984375 -14.582031 18.953125 -15.1875 C 18.867188 -15.207031 18.785156 -15.21875 18.703125 -15.21875 L 18.546875 -15.21875 C 17.535156 -15.21875 16.234375 -14.5 14.640625 -13.0625 C 13.066406 -11.625 11.640625 -9.804688 10.359375 -7.609375 L 9.546875 -6.078125 C 8.742188 -4.335938 8.34375 -2.96875 8.34375 -1.96875 C 8.34375 -1.070312 8.8125 -0.625 9.75 -0.625 C 10.6875 -0.625 11.597656 -0.84375 12.484375 -1.28125 C 13.367188 -1.71875 14.242188 -2.265625 15.109375 -2.921875 C 15.972656 -3.578125 16.800781 -4.289062 17.59375 -5.0625 C 18.382812 -5.832031 19.09375 -6.550781 19.71875 -7.21875 C 20.65625 -8.238281 21.363281 -9.078125 21.84375 -9.734375 L 22.34375 -9.3125 C 22.28125 -9.25 22.046875 -8.976562 21.640625 -8.5 C 21.234375 -8.019531 20.703125 -7.429688 20.046875 -6.734375 C 19.390625 -6.035156 18.644531 -5.289062 17.8125 -4.5 C 16.976562 -3.71875 16.097656 -2.984375 15.171875 -2.296875 C 13.035156 -0.734375 11.1875 0.046875 9.625 0.046875 C 8.0625 0.046875 7.003906 -0.597656 6.453125 -1.890625 C 6.265625 -2.347656 6.171875 -2.90625 6.171875 -3.5625 C 6.171875 -4.226562 6.363281 -5.175781 6.75 -6.40625 C 4.53125 -3.34375 2.054688 -1.316406 -0.671875 -0.328125 C -1.398438 -0.078125 -2.035156 0.046875 -2.578125 0.046875 Z M -2.578125 0.046875 "/></g></g></g><g fill="#000000" fill-opacity="1"><g transform="translate(282.845455, 176.105832)"><g><path d="M -2.578125 0.046875 C -3.941406 0.046875 -4.625 -0.375 -4.625 -1.21875 C -4.625 -1.488281 -4.476562 -1.742188 -4.1875 -1.984375 C -3.894531 -2.222656 -3.597656 -2.34375 -3.296875 -2.34375 C -2.890625 -2.34375 -2.546875 -2.25 -2.265625 -2.0625 C -1.835938 -1.738281 -1.363281 -1.578125 -0.84375 -1.578125 C -0.332031 -1.578125 0.335938 -1.785156 1.171875 -2.203125 C 2.003906 -2.628906 2.84375 -3.234375 3.6875 -4.015625 C 5.394531 -5.597656 6.957031 -7.726562 8.375 -10.40625 C 9.445312 -11.957031 9.984375 -13.21875 9.984375 -14.1875 C 9.984375 -15.15625 9.609375 -15.640625 8.859375 -15.640625 C 7.929688 -15.640625 7.066406 -15.351562 6.265625 -14.78125 C 4.847656 -13.726562 2.984375 -11.90625 0.671875 -9.3125 C 0.546875 -9.28125 0.421875 -9.316406 0.296875 -9.421875 C 0.179688 -9.535156 0.140625 -9.632812 0.171875 -9.71875 C 2.722656 -12.550781 4.46875 -14.296875 5.40625 -14.953125 C 6.34375 -15.609375 7.066406 -16.007812 7.578125 -16.15625 C 8.085938 -16.3125 8.695312 -16.390625 9.40625 -16.390625 C 10.125 -16.390625 10.742188 -16.101562 11.265625 -15.53125 C 11.796875 -14.957031 12.0625 -14.269531 12.0625 -13.46875 C 12.0625 -12.675781 11.914062 -11.789062 11.625 -10.8125 C 13.445312 -13.28125 15.46875 -14.988281 17.6875 -15.9375 C 18.414062 -16.238281 19.054688 -16.390625 19.609375 -16.390625 C 20.171875 -16.390625 20.59375 -16.332031 20.875 -16.21875 C 21.164062 -16.101562 21.398438 -15.960938 21.578125 -15.796875 C 21.898438 -15.492188 22.0625 -15.101562 22.0625 -14.625 C 22.0625 -14.15625 21.910156 -13.804688 21.609375 -13.578125 C 21.304688 -13.347656 20.941406 -13.234375 20.515625 -13.234375 C 20.085938 -13.234375 19.726562 -13.40625 19.4375 -13.75 C 19.144531 -14.101562 18.984375 -14.582031 18.953125 -15.1875 C 18.867188 -15.207031 18.785156 -15.21875 18.703125 -15.21875 L 18.546875 -15.21875 C 17.535156 -15.21875 16.234375 -14.5 14.640625 -13.0625 C 13.066406 -11.625 11.640625 -9.804688 10.359375 -7.609375 L 9.546875 -6.078125 C 8.742188 -4.335938 8.34375 -2.96875 8.34375 -1.96875 C 8.34375 -1.070312 8.8125 -0.625 9.75 -0.625 C 10.6875 -0.625 11.597656 -0.84375 12.484375 -1.28125 C 13.367188 -1.71875 14.242188 -2.265625 15.109375 -2.921875 C 15.972656 -3.578125 16.800781 -4.289062 17.59375 -5.0625 C 18.382812 -5.832031 19.09375 -6.550781 19.71875 -7.21875 C 20.65625 -8.238281 21.363281 -9.078125 21.84375 -9.734375 L 22.34375 -9.3125 C 22.28125 -9.25 22.046875 -8.976562 21.640625 -8.5 C 21.234375 -8.019531 20.703125 -7.429688 20.046875 -6.734375 C 19.390625 -6.035156 18.644531 -5.289062 17.8125 -4.5 C 16.976562 -3.71875 16.097656 -2.984375 15.171875 -2.296875 C 13.035156 -0.734375 11.1875 0.046875 9.625 0.046875 C 8.0625 0.046875 7.003906 -0.597656 6.453125 -1.890625 C 6.265625 -2.347656 6.171875 -2.90625 6.171875 -3.5625 C 6.171875 -4.226562 6.363281 -5.175781 6.75 -6.40625 C 4.53125 -3.34375 2.054688 -1.316406 -0.671875 -0.328125 C -1.398438 -0.078125 -2.035156 0.046875 -2.578125 0.046875 Z M -2.578125 0.046875 "/></g></g></g><g fill="#fe8027" fill-opacity="1"><g transform="translate(123.191948, 222.691087)"><g><path d="M 11.550781 0.445312 C 18.53125 0.445312 21.800781 -3.4375 21.800781 -12.722656 L 21.800781 -14.097656 C 21.800781 -23.378906 18.53125 -27.265625 11.550781 -27.265625 C 4.605469 -27.265625 1.339844 -23.378906 1.339844 -14.097656 L 1.339844 -12.722656 C 1.339844 -3.4375 4.605469 0.445312 11.550781 0.445312 Z M 11.414062 -4.367188 C 7.976562 -4.367188 6.980469 -7.359375 6.980469 -12.722656 L 6.980469 -14.097656 C 6.980469 -19.460938 7.976562 -22.453125 11.414062 -22.453125 L 11.726562 -22.453125 C 15.164062 -22.453125 16.125 -19.460938 16.125 -14.097656 L 16.125 -12.722656 C 16.125 -7.359375 15.164062 -4.367188 11.726562 -4.367188 Z M 11.414062 -4.367188 "/></g></g></g><g fill="#fe8027" fill-opacity="1"><g transform="translate(147.006124, 222.691087)"><g><path d="M 1.925781 -26.820312 L 1.925781 0 L 7.496094 0 L 7.496094 -11.277344 L 16.46875 -11.277344 L 16.46875 -16.089844 L 7.496094 -16.089844 L 7.496094 -22.003906 L 18.1875 -22.003906 L 18.1875 -26.820312 Z M 1.925781 -26.820312 "/></g></g></g><g fill="#fe8027" fill-opacity="1"><g transform="translate(166.559271, 222.691087)"><g><path d="M 1.925781 -26.820312 L 1.925781 0 L 7.496094 0 L 7.496094 -11.277344 L 16.46875 -11.277344 L 16.46875 -16.089844 L 7.496094 -16.089844 L 7.496094 -22.003906 L 18.1875 -22.003906 L 18.1875 -26.820312 Z M 1.925781 -26.820312 "/></g></g></g><g fill="#fe8027" fill-opacity="1"><g transform="translate(186.112415, 222.691087)"><g><path d="M 7.667969 -26.820312 L 2.097656 -26.820312 L 2.097656 0 L 7.667969 0 Z M 7.667969 -26.820312 "/></g></g></g><g fill="#fe8027" fill-opacity="1"><g transform="translate(196.524912, 222.691087)"><g><path d="M 6.980469 -12.722656 L 6.980469 -14.097656 C 6.980469 -19.460938 7.839844 -22.453125 11.414062 -22.453125 L 11.726562 -22.453125 C 14.648438 -22.453125 15.4375 -20.320312 15.4375 -16.640625 L 21.007812 -16.640625 L 21.007812 -17.878906 C 21.007812 -24.582031 17.777344 -27.265625 11.414062 -27.265625 C 4.433594 -27.265625 1.339844 -23.378906 1.339844 -14.097656 L 1.339844 -12.722656 C 1.339844 -3.4375 4.433594 0.445312 11.414062 0.445312 C 17.777344 0.445312 21.007812 -2.234375 21.007812 -8.835938 L 21.007812 -9.144531 L 15.4375 -9.144531 C 15.4375 -6.257812 14.441406 -4.367188 11.726562 -4.367188 L 11.414062 -4.367188 C 7.839844 -4.367188 6.980469 -7.359375 6.980469 -12.722656 Z M 6.980469 -12.722656 "/></g></g></g><g fill="#fe8027" fill-opacity="1"><g transform="translate(219.548735, 222.691087)"><g><path d="M 7.667969 -26.820312 L 2.097656 -26.820312 L 2.097656 0 L 7.667969 0 Z M 7.667969 -26.820312 "/></g></g></g><g fill="#fe8027" fill-opacity="1"><g transform="translate(229.961233, 222.691087)"><g><path d="M 7.1875 -26.886719 L 0.480469 0 L 6.464844 0 L 7.734375 -5.777344 L 14.304688 -5.777344 L 15.609375 0 L 21.558594 0 L 14.851562 -26.886719 Z M 11.003906 -20.457031 L 13.203125 -10.589844 L 8.800781 -10.589844 Z M 11.003906 -20.457031 "/></g></g></g><g fill="#fe8027" fill-opacity="1"><g transform="translate(252.675793, 222.691087)"><g><path d="M 17.398438 0 L 17.398438 -4.8125 L 7.496094 -4.8125 L 7.496094 -26.820312 L 1.925781 -26.820312 L 1.925781 0 Z M 17.398438 0 "/></g></g></g></svg>